<?xml version="1.0" encoding="UTF-8" standalone="no"?>
<svg
   xmlns:dc="http://purl.org/dc/elements/1.1/"
   xmlns:cc="http://creativecommons.org/ns#"
   xmlns:rdf="http://www.w3.org/1999/02/22-rdf-syntax-ns#"
   xmlns:svg="http://www.w3.org/2000/svg"
   xmlns="http://www.w3.org/2000/svg"
   id="svg211"
   version="1.2"
   viewBox="0 0 3200 2000"
   height="2000pt"
   width="3200pt">
  <metadata
     id="metadata217">
    <rdf:RDF>
      <cc:Work
         rdf:about="">
        <dc:format>image/svg+xml</dc:format>
        <dc:type
           rdf:resource="http://purl.org/dc/dcmitype/StillImage" />
        <dc:title></dc:title>
      </cc:Work>
    </rdf:RDF>
  </metadata>
  <defs
     id="defs215" />
  <g
     id="surface3949">
    <rect
       id="rect2"
       style="fill:rgb(100%,100%,100%);fill-opacity:1;stroke:none;"
       height="2000"
       width="3200"
       y="0"
       x="0" />
    <path
       id="path4"
       d="M 386.28125 1808.058594 L 1238.46875 1803.601562 L 1465.617188 1803.53125 L 1540.878906 1803.5 L 1768.457031 1803.429688 L 2808.230469 1803.152344 C 2808.230469 1803.152344 3046.046875 1495.371094 2792.007812 1203.050781 C 2528.609375 899.96875 2400.546875 1146.800781 2319.59375 720.175781 C 2115.789062 -353.695312 100.914062 271.320312 629.402344 1185.140625 C 819.691406 1514.179688 254.832031 1339.289062 386.28125 1808.058594 "
       style=" stroke:none;fill-rule:nonzero;fill:rgb(92.1875%,95.3125%,98.046875%);fill-opacity:1;" />
    <path
       id="path6"
       d="M 1372.039062 1756.320312 C 1372.039062 1756.320312 1375.28125 1793.769531 1367.359375 1797.671875 L 1266.050781 1797.460938 C 1266.050781 1797.460938 1266.050781 1785.769531 1282.320312 1783.171875 C 1298.589844 1780.570312 1327.179688 1771.039062 1332.019531 1749.820312 C 1336.859375 1728.601562 1372.039062 1756.320312 1372.039062 1756.320312 "
       style=" stroke:none;fill-rule:nonzero;fill:rgb(13.719177%,21.972656%,38.426208%);fill-opacity:1;" />
    <path
       id="path8"
       d="M 1662.75 1741.820312 C 1662.75 1741.820312 1665.792969 1793.769531 1657.875 1797.671875 L 1556.566406 1797.460938 C 1556.566406 1797.460938 1556.566406 1785.769531 1572.835938 1783.171875 C 1589.105469 1780.570312 1617.691406 1771.039062 1622.535156 1749.820312 C 1627.378906 1728.601562 1662.75 1741.820312 1662.75 1741.820312 "
       style=" stroke:none;fill-rule:nonzero;fill:rgb(13.719177%,21.972656%,38.426208%);fill-opacity:1;" />
    <path
       id="path10"
       d="M 1666.203125 1748.210938 C 1666.203125 1748.210938 1646.09375 1758.578125 1637.476562 1760.460938 C 1627.910156 1762.570312 1609.949219 1761.230469 1609.949219 1761.230469 C 1575.492188 1668.851562 1468.621094 1293.320312 1468.621094 1293.320312 C 1463.976562 1397.160156 1445.230469 1500.71875 1425.757812 1583.96875 C 1425.246094 1586.199219 1424.726562 1588.410156 1424.203125 1590.609375 L 1424.203125 1590.640625 C 1423.734375 1592.640625 1423.253906 1594.628906 1422.773438 1596.589844 C 1422.753906 1596.6875 1422.730469 1596.769531 1422.722656 1596.859375 C 1399.078125 1695.097656 1375.382812 1762 1375.382812 1762 C 1375.382812 1762 1369.261719 1769.738281 1352.21875 1766.199219 C 1332.695312 1762.148438 1326.183594 1753.570312 1326.183594 1753.570312 C 1338.808594 1353.429688 1345.871094 1127.796875 1345.871094 1127.796875 C 1345.871094 1127.796875 1515.015625 1036.417969 1560.976562 1114.527344 C 1606.925781 1192.640625 1666.203125 1748.210938 1666.203125 1748.210938 "
       style=" stroke:none;fill-rule:nonzero;fill:rgb(16.479492%,30.589294%,58.789062%);fill-opacity:1;" />
    <path
       id="path12"
       d="M 1598.039062 1168.488281 C 1576.109375 1090.089844 1572.511719 1015.648438 1572.679688 954.019531 C 1572.910156 866.300781 1580.789062 804.519531 1554.390625 794.109375 C 1554.390625 794.109375 1472.828125 770.398438 1416.691406 759.949219 C 1407.75 755.03125 1397.820312 749.871094 1390.289062 746.808594 C 1372.570312 739.621094 1303.460938 639.160156 1291.738281 615.109375 C 1280.03125 591.058594 1260.628906 486.269531 1260.628906 486.269531 L 1233.699219 494.851562 C 1233.699219 494.851562 1225.609375 612.480469 1229.488281 643.140625 C 1233.371094 673.789062 1318.941406 805.621094 1326.039062 817.160156 C 1356.5 928.511719 1326.039062 1109.710938 1339.960938 1150.109375 C 1347.121094 1170.890625 1479.929688 1208.96875 1552.621094 1204.179688 C 1556.238281 1203.941406 1559.71875 1203.589844 1563.019531 1203.128906 C 1563.03125 1203.128906 1563.039062 1203.121094 1563.050781 1203.121094 C 1580.25 1200.730469 1592.761719 1195.238281 1597.339844 1185.601562 C 1599.578125 1180.921875 1599.941406 1175.25 1598.039062 1168.488281 "
       style=" stroke:none;fill-rule:nonzero;fill:rgb(68.164062%,76.5625%,100%);fill-opacity:1;" />
    <path
       id="path14"
       d="M 1260.628906 486.269531 C 1260.628906 486.269531 1275.851562 442.050781 1264.71875 440.769531 C 1253.589844 439.480469 1225.660156 439.621094 1222.21875 447.089844 C 1218.769531 454.558594 1233.699219 494.851562 1233.699219 494.851562 L 1260.628906 486.269531 "
       style=" stroke:none;fill-rule:nonzero;fill:rgb(100%,69.726562%,49.021912%);fill-opacity:1;" />
    <path
       id="path16"
       d="M 970.925781 596.421875 L 881.097656 542.101562 C 885.082031 535.511719 891.367188 531.160156 898.300781 529.449219 C 905.242188 527.738281 912.820312 528.679688 919.417969 532.671875 C 925.226562 536.179688 932.785156 534.308594 936.296875 528.511719 L 960.609375 488.308594 L 981.640625 501.019531 L 957.332031 541.21875 C 955.574219 544.128906 955.160156 547.46875 955.914062 550.53125 C 956.664062 553.589844 958.585938 556.359375 961.488281 558.109375 C 968.082031 562.101562 972.433594 568.378906 974.144531 575.308594 C 975.851562 582.25 974.910156 589.828125 970.925781 596.421875 "
       style=" stroke:none;fill-rule:nonzero;fill:rgb(92.96875%,49.021912%,16.868591%);fill-opacity:1;" />
    <path
       id="path18"
       d="M 970.925781 596.421875 L 911.210938 560.308594 C 897.382812 548.769531 904.144531 538.878906 911.078125 537.171875 C 918.019531 535.46875 925.597656 536.410156 932.195312 540.398438 C 938.003906 543.910156 945.5625 542.039062 949.074219 536.230469 L 973.386719 496.03125 L 981.640625 501.019531 L 957.332031 541.21875 C 955.574219 544.128906 955.160156 547.46875 955.914062 550.53125 C 956.664062 553.589844 958.585938 556.359375 961.488281 558.109375 C 968.082031 562.101562 972.433594 568.378906 974.144531 575.308594 C 975.851562 582.25 974.910156 589.828125 970.925781 596.421875 "
       style=" stroke:none;fill-rule:nonzero;fill:rgb(97.65625%,59.179688%,27.43988%);fill-opacity:1;" />
    <path
       id="path20"
       d="M 1233.699219 334.554688 L 1161 426.191406 C 1135.722656 467.976562 1092.027344 488.023438 1050.15625 489.699219 C 1050.148438 489.699219 1050.148438 489.699219 1050.136719 489.699219 C 1035.867188 490.277344 1021.828125 488.722656 1008.785156 485.160156 C 998.023438 482.230469 985.621094 488.023438 978.804688 499.28125 L 977.382812 501.632812 C 973.160156 508.59375 969.625 514.445312 969.625 514.445312 L 954.316406 505.1875 C 954.316406 505.1875 957.878906 499.269531 962.125 492.253906 C 969.589844 479.863281 969.183594 464.769531 960.996094 455.609375 C 926.011719 416.46875 912.882812 351.714844 946.34375 296.390625 L 995.570312 190.554688 L 1233.699219 334.554688 "
       style=" stroke:none;fill-rule:nonzero;fill:rgb(97.65625%,59.179688%,27.43988%);fill-opacity:1;" />
    <path
       id="path22"
       d="M 929.605469 370.75 C 935.542969 336.421875 918.9375 317.710938 901.359375 297.90625 C 887.300781 282.070312 872.765625 265.695312 869.640625 241.324219 C 866.171875 214.289062 878.757812 186.691406 900.957031 172.660156 C 917.839844 161.992188 936.488281 161.652344 952.152344 171.691406 C 974.394531 185.980469 982.660156 213.632812 976.0625 251.652344 C 971.332031 278.890625 960.75 301.886719 960.304688 302.855469 L 946.347656 296.382812 C 946.742188 295.527344 985.160156 211.1875 943.839844 184.636719 C 929.585938 175.46875 916.003906 181.355469 909.175781 185.664062 C 892.203125 196.402344 882.222656 218.472656 884.898438 239.359375 C 887.421875 259.03125 899.78125 272.957031 912.863281 287.699219 C 931.191406 308.335938 951.964844 331.738281 944.765625 373.378906 L 929.605469 370.75 "
       style=" stroke:none;fill-rule:nonzero;fill:rgb(92.96875%,49.021912%,16.868591%);fill-opacity:1;" />
    <path
       id="path24"
       d="M 1102.90625 475.566406 C 1130.558594 454.359375 1154.84375 460.371094 1180.542969 466.738281 C 1201.101562 471.839844 1222.347656 477.105469 1245.386719 468.550781 C 1270.933594 459.066406 1289.527344 435.109375 1291.644531 408.933594 C 1293.242188 389.023438 1284.890625 372.351562 1268.726562 363.140625 C 1245.738281 350.082031 1217.417969 355.597656 1186.808594 379.101562 C 1164.882812 395.945312 1149.425781 415.996094 1148.789062 416.835938 L 1160.996094 426.191406 C 1161.5625 425.453125 1218.417969 352.246094 1261.113281 376.519531 C 1275.851562 384.882812 1276.957031 399.640625 1276.308594 407.695312 C 1274.6875 427.707031 1259.769531 446.800781 1240.03125 454.128906 C 1221.4375 461.03125 1203.367188 456.546875 1184.238281 451.808594 C 1157.441406 445.167969 1127.066406 437.636719 1093.550781 463.359375 L 1102.90625 475.566406 "
       style=" stroke:none;fill-rule:nonzero;fill:rgb(97.65625%,59.179688%,27.43988%);fill-opacity:1;" />
    <path
       id="path26"
       d="M 1050.136719 489.699219 C 1035.867188 490.277344 1021.828125 488.722656 1008.785156 485.160156 C 998.023438 482.230469 985.621094 488.023438 978.804688 499.28125 L 977.382812 501.632812 C 972.03125 504.386719 967.988281 507.882812 966.078125 512.289062 L 954.316406 505.1875 C 954.316406 505.1875 957.878906 499.269531 962.125 492.253906 C 969.589844 479.863281 969.183594 464.769531 960.996094 455.609375 C 926.011719 416.46875 912.882812 351.714844 946.34375 296.390625 L 995.570312 190.554688 L 1034.9375 214.355469 C 1034.9375 214.355469 875.105469 430.933594 1050.136719 489.699219 "
       style=" stroke:none;fill-rule:nonzero;fill:rgb(92.96875%,49.021912%,16.868591%);fill-opacity:1;" />
    <path
       id="path28"
       d="M 979.289062 523.75 L 940.074219 500.03125 C 934.75 496.808594 933.027344 489.820312 936.246094 484.5 C 939.46875 479.179688 946.457031 477.449219 951.78125 480.671875 L 990.996094 504.390625 C 996.320312 507.609375 998.042969 514.601562 994.824219 519.921875 C 991.605469 525.25 984.613281 526.96875 979.289062 523.75 "
       style=" stroke:none;fill-rule:nonzero;fill:rgb(97.65625%,59.179688%,27.43988%);fill-opacity:1;" />
    <path
       id="path30"
       d="M 991.292969 391.953125 L 995.5 384.996094 C 1015.449219 395.773438 1018.019531 394.5 1026.207031 380.953125 L 1067.390625 312.851562 C 1073.191406 303.261719 1070.261719 300.460938 1063.105469 294.851562 L 1058.042969 290.503906 L 1061.789062 284.292969 C 1077.292969 291.355469 1095.746094 297.378906 1109.242188 300.144531 L 1051.226562 396.078125 C 1042.808594 410.003906 1042.910156 412.371094 1061.527344 424.917969 L 1057.316406 431.886719 L 991.292969 391.953125 "
       style=" stroke:none;fill-rule:nonzero;fill:rgb(100%,100%,100%);fill-opacity:1;" />
    <path
       id="path32"
       d="M 1222.21875 447.089844 C 1222.21875 447.089844 1220.78125 462.308594 1225.660156 465.179688 C 1230.539062 468.050781 1232.269531 447.089844 1232.269531 447.089844 C 1232.269531 447.089844 1232.550781 464.28125 1236.289062 465.449219 C 1240.019531 466.621094 1242.320312 445.648438 1242.320312 445.648438 C 1242.320312 445.648438 1242.710938 462.308594 1245.238281 461.730469 C 1247.769531 461.160156 1249.5 445.648438 1249.5 445.648438 C 1249.5 445.648438 1250.648438 457.738281 1254.089844 455.570312 C 1257.539062 453.410156 1260.808594 440.429688 1260.808594 440.429688 L 1222.21875 447.089844 "
       style=" stroke:none;fill-rule:nonzero;fill:rgb(100%,69.726562%,49.021912%);fill-opacity:1;" />
    <path
       id="path34"
       d="M 1260.628906 486.269531 C 1260.628906 486.269531 1271.039062 478.101562 1273.328125 470.640625 C 1275.628906 463.171875 1282.378906 450.621094 1278.789062 449.101562 C 1275.199219 447.578125 1264.71875 463.738281 1264.71875 463.738281 L 1260.628906 486.269531 "
       style=" stroke:none;fill-rule:nonzero;fill:rgb(100%,69.726562%,49.021912%);fill-opacity:1;" />
    <path
       id="path36"
       d="M 1441.011719 747.921875 L 1439.710938 754.71875 C 1439.710938 754.71875 1433.648438 775.609375 1459.210938 783.890625 C 1484.761719 792.179688 1506.300781 796.011719 1508.839844 779.46875 C 1508.988281 766.308594 1508.671875 745.761719 1510.570312 735.21875 C 1511.28125 731.300781 1512.359375 727.210938 1514.019531 722.679688 L 1463.511719 711.640625 L 1448.089844 711.121094 L 1441.011719 747.921875 "
       style=" stroke:none;fill-rule:nonzero;fill:rgb(100%,69.726562%,49.021912%);fill-opacity:1;" />
    <path
       id="path38"
       d="M 1448.089844 711.121094 L 1443.390625 735.921875 C 1491.371094 748.628906 1512.359375 727.210938 1514.019531 722.679688 L 1463.511719 711.640625 L 1448.089844 711.121094 "
       style=" stroke:none;fill-rule:nonzero;fill:rgb(88.671875%,56.834412%,35.301208%);fill-opacity:1;" />
    <path
       id="path40"
       d="M 1521.421875 712.390625 C 1506.539062 742.628906 1465.648438 730.03125 1448.421875 723.03125 C 1443.570312 721.070312 1440.601562 719.550781 1440.601562 719.550781 C 1435.378906 716.460938 1434.71875 706.679688 1436.53125 694.621094 C 1440.089844 670.75 1453.261719 637.929688 1459.578125 630.371094 C 1469.101562 618.988281 1484.089844 608 1522.710938 629.800781 C 1561.328125 651.609375 1540.5 673.640625 1521.421875 712.390625 "
       style=" stroke:none;fill-rule:nonzero;fill:rgb(100%,69.726562%,49.021912%);fill-opacity:1;" />
    <path
       id="path42"
       d="M 1455.378906 596.421875 C 1455.378906 596.421875 1474.019531 600.140625 1498.179688 596.820312 C 1517.78125 594.128906 1537.480469 608.679688 1543.578125 614.460938 C 1543.710938 613.25 1543.691406 611.550781 1543.039062 609.660156 C 1543.039062 609.660156 1545.621094 612.839844 1545.199219 616.160156 C 1545.460938 616.5 1545.558594 616.710938 1545.460938 616.738281 C 1545.460938 616.738281 1549.289062 617.101562 1551.328125 618.808594 C 1551.328125 618.808594 1549.761719 618.109375 1548.878906 619 C 1548.789062 619.089844 1548.671875 619.160156 1548.539062 619.21875 C 1572.101562 640.03125 1562.53125 683.820312 1550.960938 691.320312 C 1537.039062 700.351562 1513.140625 725.210938 1513.140625 725.210938 C 1513.140625 725.210938 1513.980469 716.128906 1518.859375 706.121094 C 1523.738281 696.109375 1514.628906 693.550781 1504.460938 685.519531 C 1494.300781 677.488281 1507.660156 666.761719 1499.878906 655.769531 C 1492.089844 644.789062 1453.808594 639.230469 1456.039062 633.121094 C 1443.730469 624.28125 1454.988281 597.828125 1455.378906 596.421875 "
       style=" stroke:none;fill-rule:nonzero;fill:rgb(13.719177%,21.972656%,38.426208%);fill-opacity:1;" />
    <path
       id="path44"
       d="M 1461.519531 701.238281 C 1461.519531 701.238281 1459.03125 704.980469 1449.058594 700.558594 C 1449.058594 700.558594 1440.699219 696.859375 1442.628906 692.449219 C 1442.628906 692.449219 1452.121094 692.320312 1461.519531 701.238281 "
       style=" stroke:none;fill-rule:nonzero;fill:rgb(100%,100%,100%);fill-opacity:1;" />
    <path
       id="path46"
       d="M 1450.300781 803.488281 C 1450.300781 803.488281 1427.261719 956.359375 1254.949219 1062.519531 L 1238.871094 1109.238281 L 1301.058594 1109.238281 C 1301.058594 1109.238281 1455.398438 979.808594 1465.738281 807.890625 L 1450.300781 803.488281 "
       style=" stroke:none;fill-rule:nonzero;fill:rgb(92.96875%,49.021912%,16.868591%);fill-opacity:1;" />
    <path
       id="path48"
       d="M 1450.300781 803.488281 L 1450.300781 780.320312 L 1478.699219 788.359375 L 1465.738281 807.890625 L 1450.300781 803.488281 "
       style=" stroke:none;fill-rule:nonzero;fill:rgb(85.9375%,39.598083%,8.616638%);fill-opacity:1;" />
    <path
       id="path50"
       d="M 1441.011719 747.921875 L 1424.390625 762.121094 C 1424.390625 762.121094 1419.800781 781.96875 1431 803.488281 L 1464.5 784.339844 C 1464.5 784.339844 1444.710938 774.78125 1441.011719 747.921875 "
       style=" stroke:none;fill-rule:nonzero;fill:rgb(61.521912%,68.943787%,95.701599%);fill-opacity:1;" />
    <path
       id="path52"
       d="M 1464.5 784.339844 C 1464.5 784.339844 1467.820312 802.328125 1476.550781 811.230469 C 1476.550781 811.230469 1514.289062 804.628906 1524.769531 786.539062 L 1508.960938 761.839844 C 1508.960938 761.839844 1505.179688 778.691406 1464.5 784.339844 "
       style=" stroke:none;fill-rule:nonzero;fill:rgb(61.521912%,68.943787%,95.701599%);fill-opacity:1;" />
    <path
       id="path54"
       d="M 1690.644531 1180.558594 C 1690.644531 1180.558594 1690.71875 1214.785156 1687.5625 1221.585938 C 1684.421875 1228.398438 1670.285156 1250.566406 1663.78125 1255.308594 C 1657.265625 1260.058594 1665.191406 1227.898438 1663.136719 1222.015625 C 1661.09375 1216.136719 1658.582031 1233.617188 1655.574219 1234.335938 C 1652.566406 1235.058594 1651.746094 1219.648438 1651.042969 1214.085938 C 1650.359375 1208.515625 1663.882812 1193.175781 1667.917969 1180.746094 C 1671.941406 1168.316406 1690.644531 1180.558594 1690.644531 1180.558594 "
       style=" stroke:none;fill-rule:nonzero;fill:rgb(100%,69.726562%,49.021912%);fill-opacity:1;" />
    <path
       id="path56"
       d="M 1553.859375 794.097656 C 1553.859375 794.097656 1587.042969 803.144531 1609.53125 852.628906 C 1633.125 904.523438 1696.246094 1019.800781 1698.582031 1035.710938 C 1700.921875 1051.609375 1694.398438 1200.1875 1694.398438 1200.1875 C 1694.398438 1200.1875 1666.777344 1201.257812 1658.253906 1188.160156 C 1658.253906 1188.160156 1648.632812 1057.730469 1644.382812 1050.640625 C 1640.117188 1043.550781 1531.433594 913.914062 1540.585938 881.023438 C 1549.738281 848.132812 1553.859375 794.097656 1553.859375 794.097656 "
       style=" stroke:none;fill-rule:nonzero;fill:rgb(68.164062%,76.5625%,100%);fill-opacity:1;" />
    <path
       id="path58"
       d="M 1597.339844 1185.601562 C 1589.121094 1192.660156 1578.011719 1198.800781 1563.050781 1203.121094 C 1563.039062 1203.121094 1563.03125 1203.128906 1563.019531 1203.128906 C 1559.339844 1204.191406 1555.890625 1204.511719 1552.621094 1204.179688 C 1491.878906 1197.921875 1501.21875 961.921875 1530.648438 944.480469 C 1561.660156 926.109375 1572.679688 954.019531 1572.679688 954.019531 C 1572.511719 1015.648438 1576.109375 1090.089844 1598.039062 1168.488281 C 1599.941406 1175.25 1599.578125 1180.921875 1597.339844 1185.601562 "
       style=" stroke:none;fill-rule:nonzero;fill:rgb(61.521912%,68.943787%,95.701599%);fill-opacity:1;" />
    <path
       id="path60"
       d="M 1422.769531 1596.589844 C 1423.179688 1594.75 1423.648438 1592.769531 1424.199219 1590.640625 C 1423.730469 1592.640625 1423.25 1594.628906 1422.769531 1596.589844 "
       style=" stroke:none;fill-rule:nonzero;fill:rgb(13.719177%,21.972656%,38.426208%);fill-opacity:1;" />
    <path
       id="path62"
       d="M 1425.761719 1583.96875 C 1444.351562 1496 1424.308594 1260.269531 1433.261719 1255.789062 C 1442.449219 1251.199219 1468.621094 1293.320312 1468.621094 1293.320312 C 1463.980469 1397.160156 1445.230469 1500.71875 1425.761719 1583.96875 "
       style=" stroke:none;fill-rule:nonzero;fill:rgb(13.719177%,21.972656%,38.426208%);fill-opacity:1;" />
    <path
       id="path64"
       d="M 971.285156 1763.640625 L 965.929688 1725.050781 L 988.433594 1706.25 L 995.523438 1757.328125 L 971.285156 1763.640625 "
       style=" stroke:none;fill-rule:nonzero;fill:rgb(100%,69.726562%,49.021912%);fill-opacity:1;" />
    <path
       id="path66"
       d="M 1046.019531 1798.109375 L 954.273438 1798.109375 C 954.273438 1798.109375 952.074219 1784.121094 956.867188 1773.511719 C 961.457031 1763.328125 968.605469 1757.050781 969.257812 1749.25 C 975.085938 1755.261719 982.261719 1759.121094 995.523438 1757.328125 C 997.148438 1759.96875 1006.011719 1774.070312 1011.441406 1777.96875 C 1017.441406 1782.28125 1044.171875 1780.738281 1046.019531 1798.109375 "
       style=" stroke:none;fill-rule:nonzero;fill:rgb(13.719177%,21.972656%,38.426208%);fill-opacity:1;" />
    <path
       id="path68"
       d="M 1027.589844 1242.601562 C 1021.589844 1290.871094 1016.679688 1336.371094 1012.679688 1378.78125 C 991.332031 1604.75 995.519531 1742.859375 995.519531 1742.859375 C 995.519531 1742.859375 993.976562 1746.949219 980.742188 1747.011719 C 973.257812 1747.050781 965.929688 1745.410156 965.929688 1745.410156 C 965.929688 1745.410156 918.125 1597.859375 921.816406 1513.890625 C 922.253906 1503.789062 923.441406 1494.609375 925.546875 1486.710938 C 937.015625 1443.75 883.105469 1279.449219 941.707031 1218.269531 C 1000.289062 1157.089844 1030.351562 1220.449219 1027.589844 1242.601562 "
       style=" stroke:none;fill-rule:nonzero;fill:rgb(97.65625%,59.179688%,27.43988%);fill-opacity:1;" />
    <path
       id="path70"
       d="M 1027.589844 1242.601562 C 1021.589844 1290.871094 1016.679688 1336.371094 1012.679688 1378.78125 L 921.816406 1513.890625 C 922.253906 1503.789062 923.441406 1494.609375 925.546875 1486.710938 C 937.015625 1443.75 883.105469 1279.449219 941.707031 1218.269531 C 1000.289062 1157.089844 1030.351562 1220.449219 1027.589844 1242.601562 "
       style=" stroke:none;fill-rule:nonzero;fill:rgb(92.96875%,49.021912%,16.868591%);fill-opacity:1;" />
    <path
       id="path72"
       d="M 1099.789062 782.21875 C 1099.789062 782.21875 1097.578125 771.199219 1095.089844 762.78125 C 1093.988281 759.058594 1101.671875 734.601562 1106.980469 731.589844 C 1112.300781 728.578125 1126.140625 745.050781 1122.230469 757.699219 C 1120.210938 764.191406 1116.910156 785.328125 1116.910156 785.328125 L 1099.789062 782.21875 "
       style=" stroke:none;fill-rule:nonzero;fill:rgb(100%,69.726562%,49.021912%);fill-opacity:1;" />
    <path
       id="path74"
       d="M 1099.789062 782.21875 C 1099.789062 782.21875 1096.898438 775.828125 1094.289062 774.789062 C 1091.691406 773.761719 1088.890625 763.300781 1086.96875 759.160156 C 1086.96875 759.160156 1088.820312 756.441406 1092.058594 759.929688 C 1094.039062 762.058594 1098.441406 768.300781 1098.441406 768.300781 L 1099.789062 782.21875 "
       style=" stroke:none;fill-rule:nonzero;fill:rgb(100%,69.726562%,49.021912%);fill-opacity:1;" />
    <path
       id="path76"
       d="M 721.050781 819.320312 C 720.488281 820.480469 719.707031 822.550781 719.011719 824.5 C 719 823.96875 718.992188 823.441406 718.984375 822.929688 C 718.949219 819.039062 704.449219 797.910156 698.484375 796.578125 C 692.523438 795.261719 684.105469 815.058594 691.554688 826.011719 C 695.378906 831.628906 704.726562 850.878906 704.726562 850.878906 L 720.179688 842.890625 C 720.179688 842.890625 721.074219 835.941406 723.265625 834.179688 C 725.457031 832.429688 725.070312 821.609375 725.6875 817.089844 C 725.6875 817.089844 723.125 815.03125 721.050781 819.320312 "
       style=" stroke:none;fill-rule:nonzero;fill:rgb(100%,69.726562%,49.021912%);fill-opacity:1;" />
    <path
       id="path78"
       d="M 817.421875 1752.070312 C 816.125 1739.699219 815.804688 1707.171875 815.804688 1707.171875 C 815.804688 1707.171875 848.960938 1696.570312 847.738281 1703.839844 C 841.742188 1739.621094 843.367188 1757.328125 843.367188 1757.328125 L 829.960938 1765.339844 L 817.421875 1752.070312 "
       style=" stroke:none;fill-rule:nonzero;fill:rgb(100%,69.726562%,49.021912%);fill-opacity:1;" />
    <path
       id="path80"
       d="M 999.894531 1240.300781 C 999.894531 1240.300781 871.808594 1591.410156 846.597656 1743.710938 C 846.597656 1743.710938 840.753906 1747.71875 829.859375 1746.390625 C 817.5 1744.878906 814.113281 1736.300781 814.113281 1736.300781 C 814.113281 1736.300781 790.976562 1553.761719 836.964844 1490.390625 C 868.5625 1446.851562 823.335938 1255.640625 896.929688 1240.300781 C 970.523438 1224.96875 999.894531 1240.300781 999.894531 1240.300781 "
       style=" stroke:none;fill-rule:nonzero;fill:rgb(97.65625%,59.179688%,27.43988%);fill-opacity:1;" />
    <path
       id="path82"
       d="M 977.144531 902.558594 C 977.144531 902.550781 977.144531 902.550781 977.144531 902.550781 C 977.121094 902.390625 977.085938 902.238281 977.035156 902.089844 C 976.289062 899 975.472656 895.960938 974.589844 892.941406 C 974.589844 892.929688 974.589844 892.929688 974.589844 892.929688 C 971.910156 883.699219 968.71875 874.910156 965.277344 867.140625 C 963.296875 862.691406 961.246094 858.570312 959.144531 854.898438 C 958.824219 854.328125 958.511719 853.800781 958.207031 853.261719 L 958.191406 853.25 C 953.242188 844.929688 948.152344 839.179688 943.5625 837.398438 C 935.1875 834.160156 925.875 835.070312 919.460938 836.398438 C 920.867188 834.441406 924.058594 833.320312 924.058594 833.320312 C 919.957031 833.320312 911.597656 838.628906 911.597656 838.628906 C 852.601562 825.429688 856.050781 908.890625 860.066406 927.800781 C 864.070312 946.71875 845.074219 955.910156 818.289062 975.261719 C 767.167969 1012.191406 768.023438 1051.339844 768.023438 1051.339844 C 768.484375 1051.53125 768.988281 1051.75 769.511719 1052.019531 C 771.566406 1046.949219 775.933594 1037.371094 780.503906 1035.339844 C 780.375 1035.789062 776.65625 1048.210938 775.597656 1055.160156 C 783.386719 1059.449219 794.164062 1066.101562 805.863281 1073.601562 C 805.863281 1073.601562 805.863281 1073.601562 805.878906 1073.609375 C 821.535156 1083.628906 838.816406 1095.160156 852.664062 1104.519531 C 852.003906 1100.710938 851.355469 1095.28125 852.320312 1092.210938 L 856.734375 1105.878906 L 857.3125 1107.660156 C 866.148438 1113.648438 873.121094 1118.441406 876.660156 1120.890625 C 877.023438 1121.140625 877.347656 1121.371094 877.636719 1121.558594 C 878.667969 1122.269531 879.222656 1122.660156 879.222656 1122.660156 C 878.046875 1117.828125 883.207031 1105.230469 891.859375 1089.359375 C 892.453125 1088.25 893.085938 1087.128906 893.726562 1085.988281 C 896.519531 1080.96875 899.640625 1075.679688 903 1070.230469 C 904.210938 1068.261719 905.433594 1066.289062 906.703125 1064.28125 C 906.699219 1064.269531 906.710938 1064.269531 906.710938 1064.269531 C 907.726562 1062.648438 908.757812 1061.050781 909.820312 1059.410156 L 909.832031 1059.398438 C 912.339844 1055.519531 914.933594 1051.621094 917.582031 1047.710938 C 924.4375 1037.578125 931.699219 1027.53125 938.871094 1018.300781 C 949.289062 1004.878906 959.511719 993.199219 968.070312 985.558594 C 968.351562 984.980469 968.617188 984.398438 968.855469 983.800781 C 970.195312 980.691406 971.222656 977.230469 972.019531 973.710938 C 972.269531 972.648438 972.488281 971.589844 972.683594 970.53125 C 974.816406 959.300781 974.859375 948.160156 974.832031 945.511719 C 975.515625 956.359375 975.242188 964.539062 974.515625 970.71875 C 974.351562 972.078125 974.175781 973.339844 973.96875 974.511719 L 973.96875 974.519531 C 973.515625 977.160156 972.988281 979.339844 972.421875 981.148438 C 973.824219 979.410156 975.054688 977.511719 976.144531 975.421875 C 976.855469 974.058594 977.507812 972.628906 978.082031 971.140625 C 984.984375 953.511719 983.128906 927.21875 977.144531 902.558594 "
       style=" stroke:none;fill-rule:nonzero;fill:rgb(8.616638%,20.776367%,37.646484%);fill-opacity:1;" />
    <path
       id="path84"
       d="M 966.0625 987.101562 C 966.261719 987.160156 949.546875 999.261719 935.367188 997.558594 C 922.03125 995.96875 911.1875 980.601562 911.359375 980.53125 C 916.625 978.648438 917.082031 970.960938 912.199219 938.929688 L 914.726562 939.050781 L 957.191406 941.078125 C 957.191406 941.078125 958.183594 954.199219 959.976562 966.429688 C 961.476562 976.710938 963.546875 986.351562 966.0625 987.101562 "
       style=" stroke:none;fill-rule:nonzero;fill:rgb(100%,69.726562%,49.021912%);fill-opacity:1;" />
    <path
       id="path86"
       d="M 957.191406 941.078125 C 957.191406 941.078125 958.183594 954.199219 959.976562 966.429688 C 936.796875 969.21875 921.460938 949.96875 914.726562 939.050781 L 957.191406 941.078125 "
       style=" stroke:none;fill-rule:nonzero;fill:rgb(92.96875%,59.179688%,36.473083%);fill-opacity:1;" />
    <path
       id="path88"
       d="M 909.796875 935.191406 C 909.796875 935.191406 894.855469 917.871094 889.519531 901.960938 C 885.710938 890.601562 885.222656 846.460938 929.613281 846.230469 C 929.613281 846.230469 942.421875 845.589844 955.480469 851.839844 C 965.867188 856.808594 981.53125 868.550781 971.917969 908.558594 L 969.859375 921.890625 L 909.796875 935.191406 "
       style=" stroke:none;fill-rule:nonzero;fill:rgb(8.616638%,20.776367%,37.646484%);fill-opacity:1;" />
    <path
       id="path90"
       d="M 1032.941406 1233.558594 C 1032.941406 1233.558594 977.675781 1266.398438 908.289062 1249.519531 C 907.472656 1249.320312 851.15625 1240.328125 851.15625 1240.328125 C 852.125 1237.679688 859.402344 1194.179688 860.355469 1191.75 C 872.664062 1159.980469 895.160156 987.578125 913.957031 979.078125 C 918.757812 984.300781 932.472656 987.878906 944.214844 986.839844 C 957.734375 985.640625 962.257812 979.800781 961.136719 973.519531 C 976.097656 980.589844 987.589844 987.171875 987.589844 987.171875 C 1001.261719 1007.660156 1032.941406 1233.558594 1032.941406 1233.558594 "
       style=" stroke:none;fill-rule:nonzero;fill:rgb(100%,100%,100%);fill-opacity:1;" />
    <path
       id="path92"
       d="M 966.625 951.511719 C 966.625 951.511719 912.140625 960.539062 907.042969 926.519531 C 901.945312 892.511719 891.480469 870.761719 926.050781 863.558594 C 960.621094 856.359375 969.339844 868.328125 973.804688 879.269531 C 978.265625 890.210938 980.664062 948.289062 966.625 951.511719 "
       style=" stroke:none;fill-rule:nonzero;fill:rgb(100%,69.726562%,49.021912%);fill-opacity:1;" />
    <path
       id="path94"
       d="M 950.800781 859.03125 C 950.800781 859.03125 941.785156 901.171875 919.710938 910.480469 C 897.640625 919.800781 886.769531 915.128906 886.769531 915.128906 C 886.769531 915.128906 902.292969 898.519531 902.316406 873.570312 C 902.316406 873.570312 936.695312 841.710938 950.800781 859.03125 "
       style=" stroke:none;fill-rule:nonzero;fill:rgb(8.616638%,20.776367%,37.646484%);fill-opacity:1;" />
    <path
       id="path96"
       d="M 947.578125 862.820312 C 947.578125 862.820312 960.070312 870.070312 964.082031 878.328125 C 968.09375 886.589844 971.972656 904.238281 977.078125 902.859375 C 977.078125 902.859375 984.308594 874.050781 969.363281 860.589844 C 953.519531 846.308594 947.578125 862.820312 947.578125 862.820312 "
       style=" stroke:none;fill-rule:nonzero;fill:rgb(8.616638%,20.776367%,37.646484%);fill-opacity:1;" />
    <path
       id="path98"
       d="M 1117.28125 783.011719 C 1115.058594 782.230469 1111.800781 780.378906 1107.539062 780 C 1103.75 779.660156 1098.980469 780.890625 1098.980469 780.890625 C 1098.980469 780.890625 1083.609375 876.449219 1082.46875 881.511719 C 1081.328125 886.570312 1016.53125 959.558594 999.066406 959.269531 C 983.292969 959 964.605469 971.179688 961.136719 973.519531 C 961.136719 973.519531 997.871094 1051.199219 999.703125 1065.789062 C 1001.699219 1081.671875 1020.710938 1326.160156 1020.710938 1326.160156 C 1020.710938 1326.160156 1019.578125 1337.539062 1040.828125 1331.421875 C 1062.089844 1325.308594 1067.398438 1320.25 1067.398438 1320.25 C 1067.398438 1320.25 1047.878906 1127.761719 1043.78125 1067.898438 C 1043.230469 1059.871094 1041.921875 1052.429688 1040.050781 1045.570312 C 1038.25 1038.949219 1039.671875 1031.878906 1043.710938 1026.339844 C 1070.578125 989.449219 1113.011719 929.699219 1115.371094 917 C 1118.851562 898.328125 1117.28125 783.011719 1117.28125 783.011719 "
       style=" stroke:none;fill-rule:nonzero;fill:rgb(16.868591%,27.830505%,54.492188%);fill-opacity:1;" />
    <path
       id="path100"
       d="M 893.863281 1798.109375 L 802.117188 1798.109375 C 802.117188 1798.109375 799.917969 1784.121094 804.710938 1773.511719 C 809.304688 1763.328125 816.449219 1757.050781 817.101562 1749.25 C 822.929688 1755.261719 830.105469 1759.121094 843.367188 1757.328125 C 844.992188 1759.96875 853.859375 1774.070312 859.289062 1777.96875 C 865.285156 1782.28125 892.019531 1780.738281 893.863281 1798.109375 "
       style=" stroke:none;fill-rule:nonzero;fill:rgb(13.719177%,21.972656%,38.426208%);fill-opacity:1;" />
    <path
       id="path102"
       d="M 956.890625 1073.328125 C 953.796875 1054.308594 914.320312 977.910156 914.320312 977.910156 C 914.320312 977.910156 889.363281 970.441406 872.9375 976.390625 C 856.511719 982.339844 771.523438 934.359375 768.800781 929.941406 C 766.078125 925.519531 720.558594 840.699219 720.558594 840.699219 C 720.558594 840.699219 716.785156 838.519531 710.738281 841.671875 C 704.753906 844.789062 704.726562 850.878906 704.726562 850.878906 C 704.726562 850.878906 739.855469 957.671875 749.203125 974.191406 C 754.839844 984.148438 802.222656 1018.839844 838.960938 1044.808594 C 845.976562 1049.769531 849.660156 1058.210938 848.507812 1066.71875 C 843.566406 1103.238281 842.3125 1123.808594 836.628906 1186.46875 C 831.917969 1238.460938 830.113281 1339.101562 830.113281 1339.101562 C 830.113281 1339.101562 871.222656 1353.320312 899.597656 1355.210938 C 927.96875 1357.101562 934.152344 1327.191406 934.152344 1327.191406 C 934.152344 1327.191406 960.066406 1092.898438 956.890625 1073.328125 "
       style=" stroke:none;fill-rule:nonzero;fill:rgb(16.868591%,27.830505%,54.492188%);fill-opacity:1;" />
    <path
       id="path104"
       d="M 948.769531 934.691406 C 948.769531 934.691406 955.390625 938.578125 963.203125 937.410156 C 968.558594 936.609375 969.773438 930.261719 969.773438 930.261719 C 969.773438 930.261719 966.054688 929.078125 960.113281 930.28125 C 954.175781 931.46875 948.769531 934.691406 948.769531 934.691406 "
       style=" stroke:none;fill-rule:nonzero;fill:rgb(100%,100%,100%);fill-opacity:1;" />
    <path
       id="path106"
       d="M 2010.0625 927.566406 C 2010.0625 927.566406 2026.988281 955.457031 1995.164062 973.019531 C 1995.164062 973.019531 2019.625 981.839844 2028.132812 978.511719 C 2028.132812 978.511719 2026.027344 980.707031 2024.433594 981.511719 C 2024.433594 981.511719 2047.414062 988.8125 2058.863281 984.824219 C 2070.328125 980.839844 2095.007812 869.539062 2027.15625 863.667969 C 2027.15625 863.667969 1973.636719 844.503906 1962.3125 904.230469 C 1951.003906 963.957031 1930.402344 958.160156 1930.402344 958.160156 C 1930.402344 958.160156 1935.386719 962.378906 1938.152344 963.15625 C 1938.152344 963.15625 1942.609375 962.871094 1943.972656 961.03125 C 1943.972656 961.03125 1942.265625 964.050781 1940.953125 964.789062 C 1940.953125 964.789062 1962.648438 972.992188 1975.9375 968.367188 C 1989.226562 963.746094 2009.84375 940.484375 2010.0625 927.566406 "
       style=" stroke:none;fill-rule:nonzero;fill:rgb(8.616638%,20.776367%,37.646484%);fill-opacity:1;" />
    <path
       id="path108"
       d="M 1941.9375 1806.242188 L 2028.503906 1806.242188 C 2028.503906 1806.242188 2030.574219 1793.050781 2026.050781 1783.039062 C 2021.726562 1773.429688 2014.988281 1767.5 2014.367188 1760.152344 C 2008.859375 1765.8125 2002.09375 1769.449219 1989.585938 1767.769531 C 1988.054688 1770.261719 1979.683594 1783.5625 1974.5625 1787.242188 C 1968.90625 1791.300781 1943.679688 1789.859375 1941.9375 1806.242188 "
       style=" stroke:none;fill-rule:nonzero;fill:rgb(13.719177%,21.972656%,38.426208%);fill-opacity:1;" />
    <path
       id="path110"
       d="M 2013.476562 1773.179688 C 2013.476562 1773.179688 2006.082031 1775.570312 1998.375 1776.25 C 1984.746094 1777.46875 1982.757812 1773.410156 1982.757812 1773.410156 C 1982.757812 1773.410156 1969.203125 1652.792969 1925.347656 1422.242188 C 1919.023438 1388.941406 1916.519531 1370.511719 1914.234375 1340.921875 C 1913.554688 1332.050781 1912.886719 1322.203125 1912.15625 1310.640625 C 1910.160156 1279.5625 1914.886719 1227.273438 1938.199219 1213.523438 C 1948.796875 1207.261719 1963.246094 1208.980469 1982.660156 1224.28125 C 1984.191406 1225.484375 1985.765625 1226.773438 1987.347656 1228.152344 C 2044.183594 1277.324219 2020.882812 1418.5 2023.183594 1484.882812 C 2023.5625 1495.882812 2024.65625 1504.832031 2026.917969 1510.960938 C 2029.847656 1518.890625 2036.148438 1529.890625 2037.582031 1540.242188 C 2049.511719 1626.332031 2013.476562 1773.179688 2013.476562 1773.179688 "
       style=" stroke:none;fill-rule:nonzero;fill:rgb(16.868591%,27.830505%,54.492188%);fill-opacity:1;" />
    <path
       id="path112"
       d="M 2023.175781 1484.882812 L 1914.234375 1340.921875 C 1913.554688 1332.050781 1912.878906 1322.203125 1912.152344 1310.640625 C 1910.167969 1279.5625 1914.886719 1227.273438 1938.199219 1213.523438 L 1982.667969 1224.28125 C 1984.199219 1225.484375 1985.765625 1226.773438 1987.347656 1228.152344 C 2044.183594 1277.324219 2020.882812 1418.5 2023.175781 1484.882812 "
       style=" stroke:none;fill-rule:nonzero;fill:rgb(13.719177%,21.972656%,38.426208%);fill-opacity:1;" />
    <path
       id="path114"
       d="M 2331.144531 1624.070312 L 2295.117188 1545.359375 C 2295.117188 1545.359375 2282.246094 1548.960938 2275.039062 1557.238281 C 2268.101562 1565.179688 2263.082031 1563.757812 2247.308594 1552.808594 C 2253.246094 1561.988281 2254.046875 1567.398438 2257.71875 1579.46875 C 2260.625 1579.828125 2277.128906 1595.800781 2294.03125 1600.199219 C 2300.769531 1601.960938 2315.511719 1629.300781 2331.144531 1624.070312 "
       style=" stroke:none;fill-rule:nonzero;fill:rgb(13.719177%,21.972656%,38.426208%);fill-opacity:1;" />
    <path
       id="path116"
       d="M 1953.40625 1248.070312 C 1953.40625 1248.070312 2030.980469 1517.71875 2059.40625 1535.070312 C 2087.820312 1552.429688 2237.253906 1576.300781 2267.617188 1589.320312 C 2267.617188 1589.320312 2271.324219 1584.019531 2269.148438 1572.679688 C 2268.675781 1570.167969 2264.382812 1561.109375 2264.382812 1561.109375 C 2264.382812 1561.109375 2171.59375 1491.359375 2110.519531 1484.320312 C 2095.359375 1482.570312 2141.371094 1251.109375 2038.953125 1241.859375 C 1945.394531 1233.417969 1953.40625 1248.070312 1953.40625 1248.070312 "
       style=" stroke:none;fill-rule:nonzero;fill:rgb(16.868591%,27.830505%,54.492188%);fill-opacity:1;" />
    <path
       id="path118"
       d="M 1842.746094 805.671875 C 1842.746094 805.671875 1844.835938 795.265625 1847.179688 787.328125 C 1848.222656 783.8125 1840.980469 760.738281 1835.957031 757.890625 C 1830.945312 755.054688 1817.882812 770.601562 1821.578125 782.53125 C 1823.472656 788.652344 1826.589844 808.597656 1826.589844 808.597656 L 1842.746094 805.671875 "
       style=" stroke:none;fill-rule:nonzero;fill:rgb(100%,69.726562%,49.021912%);fill-opacity:1;" />
    <path
       id="path120"
       d="M 1842.746094 805.675781 C 1842.746094 805.675781 1845.476562 799.644531 1847.933594 798.664062 C 1850.394531 797.6875 1853.03125 787.820312 1854.84375 783.90625 C 1854.84375 783.90625 1853.089844 781.347656 1850.039062 784.644531 C 1848.175781 786.648438 1844.019531 792.53125 1844.019531 792.53125 L 1842.746094 805.675781 "
       style=" stroke:none;fill-rule:nonzero;fill:rgb(100%,69.726562%,49.021912%);fill-opacity:1;" />
    <path
       id="path122"
       d="M 2200.085938 840.660156 C 2200.621094 841.757812 2201.347656 843.714844 2202.007812 845.554688 C 2202.019531 845.050781 2202.035156 844.554688 2202.035156 844.066406 C 2202.074219 840.402344 2215.746094 820.460938 2221.382812 819.210938 C 2227.003906 817.960938 2234.941406 836.644531 2227.921875 846.972656 C 2224.316406 852.277344 2215.484375 870.4375 2215.484375 870.4375 L 2200.910156 862.90625 C 2200.910156 862.90625 2200.074219 856.339844 2198.003906 854.683594 C 2195.933594 853.027344 2196.304688 842.824219 2195.714844 838.558594 C 2195.714844 838.558594 2198.128906 836.621094 2200.085938 840.660156 "
       style=" stroke:none;fill-rule:nonzero;fill:rgb(100%,69.726562%,49.021912%);fill-opacity:1;" />
    <path
       id="path124"
       d="M 1968.925781 998.960938 C 1968.738281 999.015625 1984.519531 1010.425781 1997.882812 1008.828125 C 2010.46875 1007.328125 2020.695312 992.828125 2020.535156 992.765625 C 2015.5625 990.988281 2015.140625 983.730469 2019.738281 953.511719 L 2017.359375 953.621094 L 1977.292969 955.539062 C 1977.292969 955.539062 1976.351562 967.921875 1974.664062 979.464844 C 1973.25 989.15625 1971.304688 998.257812 1968.925781 998.960938 "
       style=" stroke:none;fill-rule:nonzero;fill:rgb(100%,69.726562%,49.021912%);fill-opacity:1;" />
    <path
       id="path126"
       d="M 1977.277344 955.546875 C 1977.277344 955.546875 1976.335938 967.925781 1974.65625 979.46875 C 1996.535156 982.09375 2010.992188 963.9375 2017.351562 953.628906 L 1977.277344 955.546875 "
       style=" stroke:none;fill-rule:nonzero;fill:rgb(92.96875%,59.179688%,36.473083%);fill-opacity:1;" />
    <path
       id="path128"
       d="M 2022.019531 949.984375 C 2022.019531 949.984375 2036.109375 933.648438 2041.140625 918.632812 C 2044.730469 907.914062 2045.195312 866.273438 2003.3125 866.050781 C 2003.3125 866.050781 1991.226562 865.453125 1978.917969 871.347656 C 1969.121094 876.039062 1954.339844 887.109375 1963.398438 924.855469 L 1965.34375 937.441406 L 2022.019531 949.984375 "
       style=" stroke:none;fill-rule:nonzero;fill:rgb(8.616638%,20.776367%,37.646484%);fill-opacity:1;" />
    <path
       id="path130"
       d="M 1918.664062 1237.679688 C 1918.664062 1237.679688 1957.96875 1262.480469 2023.429688 1246.550781 C 2024.199219 1246.359375 2060.644531 1240.550781 2060.644531 1240.550781 C 2059.734375 1238.050781 2021.429688 1174.773438 2020.53125 1172.472656 C 2008.914062 1142.503906 2035.816406 999.417969 2018.082031 991.394531 C 2013.542969 996.328125 2000.609375 999.699219 1989.535156 998.71875 C 1976.777344 997.589844 1972.507812 992.078125 1973.566406 986.152344 C 1959.460938 992.828125 1948.613281 999.03125 1948.613281 999.03125 C 1935.707031 1018.363281 1918.664062 1237.679688 1918.664062 1237.679688 "
       style=" stroke:none;fill-rule:nonzero;fill:rgb(100%,69.726562%,49.021912%);fill-opacity:1;" />
    <path
       id="path132"
       d="M 1968.394531 965.386719 C 1968.394531 965.386719 2019.800781 973.898438 2024.617188 941.808594 C 2029.421875 909.714844 2039.292969 889.199219 2006.675781 882.40625 C 1974.0625 875.613281 1965.828125 886.898438 1961.625 897.222656 C 1957.410156 907.542969 1955.15625 962.34375 1968.394531 965.386719 "
       style=" stroke:none;fill-rule:nonzero;fill:rgb(100%,69.726562%,49.021912%);fill-opacity:1;" />
    <path
       id="path134"
       d="M 1983.316406 878.128906 C 1983.316406 878.128906 1991.832031 917.886719 2012.644531 926.675781 C 2033.484375 935.464844 2043.726562 931.0625 2043.726562 931.0625 C 2043.726562 931.0625 2029.082031 915.398438 2029.070312 891.851562 C 2029.070312 891.851562 1996.621094 861.789062 1983.316406 878.128906 "
       style=" stroke:none;fill-rule:nonzero;fill:rgb(8.616638%,20.776367%,37.646484%);fill-opacity:1;" />
    <path
       id="path136"
       d="M 1986.367188 881.703125 C 1986.367188 881.703125 1974.582031 888.542969 1970.792969 896.335938 C 1967.015625 904.125 1963.359375 920.78125 1958.535156 919.480469 C 1958.535156 919.480469 1951.722656 892.300781 1965.820312 879.601562 C 1980.761719 866.128906 1986.367188 881.703125 1986.367188 881.703125 "
       style=" stroke:none;fill-rule:nonzero;fill:rgb(8.616638%,20.776367%,37.646484%);fill-opacity:1;" />
    <path
       id="path138"
       d="M 2212.15625 870.4375 C 2212.15625 870.4375 2179 971.195312 2170.179688 986.777344 C 2164.859375 996.179688 2105.15625 1033.359375 2070.496094 1057.859375 C 2070.113281 1058.117188 2069.679688 1058.65625 2069.164062 1059.457031 C 2069.152344 1059.46875 2069.136719 1059.480469 2069.125 1059.496094 C 2060.480469 1072.878906 2033.582031 1155.679688 2040.011719 1170.539062 C 2067.046875 1233 2085.558594 1257.160156 2092.304688 1274.679688 C 2095.671875 1283.417969 2091.179688 1293.207031 2082.355469 1296.347656 C 2071.242188 1300.308594 2054.886719 1305.277344 2035.589844 1308.589844 C 2031.898438 1309.226562 2028.113281 1309.796875 2024.230469 1310.289062 C 1970.960938 1317.046875 1934.890625 1304.550781 1916.582031 1295.308594 C 1907.921875 1290.9375 1902.695312 1281.847656 1903.238281 1272.167969 C 1904.339844 1252.410156 1914.21875 1232.847656 1918.671875 1185.328125 C 1922.050781 1149.269531 1890.929688 1094.386719 1892.246094 1075.199219 C 1892.777344 1067.609375 1898.746094 1058.527344 1901.976562 1052.648438 C 1901.976562 1052.648438 1901.976562 1052.636719 1901.976562 1052.628906 C 1907.691406 1042.207031 1910.839844 1032.796875 1907.039062 1027.566406 C 1881.6875 992.777344 1826.941406 944.796875 1824.703125 932.820312 C 1821.429688 915.210938 1822.910156 806.402344 1822.910156 806.402344 C 1825 805.667969 1828.082031 803.921875 1832.097656 803.566406 C 1835.679688 803.246094 1840.171875 804.40625 1840.171875 804.40625 C 1840.171875 804.40625 1854.667969 894.566406 1855.753906 899.335938 C 1856.839844 904.113281 1917.964844 972.976562 1934.441406 972.699219 C 1949.328125 972.445312 1970.308594 983.941406 1973.566406 986.152344 C 1973.566406 986.152344 1960.214844 1009.828125 1956.886719 1041.796875 C 1954.554688 1064.160156 1969.496094 1054.21875 1978.875 1038.898438 C 1991.589844 1018.167969 2017.144531 988.648438 2017.144531 988.648438 C 2017.144531 988.648438 2037.949219 983.238281 2053.449219 988.859375 C 2068.949219 994.472656 2149.128906 949.195312 2151.695312 945.03125 C 2154.273438 940.863281 2197.210938 860.839844 2197.210938 860.839844 C 2197.210938 860.839844 2200.769531 858.777344 2206.480469 861.746094 C 2212.128906 864.6875 2212.15625 870.4375 2212.15625 870.4375 "
       style=" stroke:none;fill-rule:nonzero;fill:rgb(97.65625%,59.179688%,27.43988%);fill-opacity:1;" />
    <path
       id="path140"
       d="M 1983.320312 947.960938 C 1983.320312 947.960938 1981.117188 952.394531 1978.160156 952.476562 C 1975.214844 952.558594 1967.683594 951.847656 1967.183594 951.082031 C 1966.671875 950.3125 1965.433594 945.679688 1965.433594 945.679688 C 1965.433594 945.679688 1977.84375 945.183594 1983.320312 947.960938 "
       style=" stroke:none;fill-rule:nonzero;fill:rgb(100%,100%,100%);fill-opacity:1;" />
    <path
       id="path142"
       d="M 2082.355469 1296.347656 C 2071.246094 1300.308594 2054.894531 1305.277344 2035.582031 1308.589844 C 2017.210938 1283.25 1986.09375 1251.367188 1994.105469 1192.71875 C 2002.371094 1132.097656 2061.976562 1068.296875 2069.125 1059.5 C 2060.472656 1072.878906 2033.589844 1155.679688 2040.015625 1170.539062 C 2067.042969 1233 2085.570312 1257.15625 2092.304688 1274.679688 C 2095.675781 1283.417969 2091.1875 1293.207031 2082.355469 1296.347656 "
       style=" stroke:none;fill-rule:nonzero;fill:rgb(92.96875%,49.021912%,16.868591%);fill-opacity:1;" />
    <path
       id="path144"
       d="M 1901.984375 1052.628906 C 1907.691406 1042.210938 1910.84375 1032.800781 1907.027344 1027.570312 C 1881.675781 992.777344 1826.933594 944.800781 1824.703125 932.824219 C 1830.125 945.84375 1896.421875 984.734375 1915.054688 1001.460938 C 1933.488281 1017.96875 1902.730469 1051.820312 1901.984375 1052.628906 "
       style=" stroke:none;fill-rule:nonzero;fill:rgb(92.96875%,49.021912%,16.868591%);fill-opacity:1;" />
    <path
       id="path146"
       d="M 789.234375 572.808594 C 789.234375 572.808594 801.660156 589.820312 800.328125 609.230469 C 799.339844 623.640625 786.496094 638.21875 785.632812 638.789062 L 805.902344 649.601562 C 805.902344 649.601562 820.9375 622.921875 815.867188 600.621094 C 814.316406 593.789062 807.128906 582.859375 801.847656 577.980469 C 796.03125 572.621094 789.234375 572.808594 789.234375 572.808594 "
       style=" stroke:none;fill-rule:nonzero;fill:rgb(41.967773%,71.679688%,74.804688%);fill-opacity:1;" />
    <path
       id="path148"
       d="M 747.796875 574.609375 L 734.957031 546.230469 C 734.957031 546.230469 794.867188 548.261719 814.71875 597.070312 C 814.71875 597.070312 772.796875 567.171875 747.796875 574.609375 "
       style=" stroke:none;fill-rule:nonzero;fill:rgb(52.539062%,82.03125%,80.46875%);fill-opacity:1;" />
    <path
       id="path150"
       d="M 521.503906 1296.558594 C 521.503906 1296.558594 507.222656 1285.78125 503.539062 1269.671875 C 500.804688 1257.710938 507.664062 1242.710938 508.226562 1242.03125 L 489.089844 1238.210938 C 489.089844 1238.210938 483.425781 1263.609375 493.019531 1280.488281 C 495.960938 1285.660156 504.488281 1292.78125 509.976562 1295.449219 C 516.023438 1298.378906 521.503906 1296.558594 521.503906 1296.558594 "
       style=" stroke:none;fill-rule:nonzero;fill:rgb(41.967773%,71.679688%,74.804688%);fill-opacity:1;" />
    <path
       id="path152"
       d="M 554.75 1284.921875 L 572.15625 1304.828125 C 572.15625 1304.828125 522.953125 1317.898438 494.828125 1283.089844 C 494.828125 1283.089844 536.253906 1297.101562 554.75 1284.921875 "
       style=" stroke:none;fill-rule:nonzero;fill:rgb(52.539062%,82.03125%,80.46875%);fill-opacity:1;" />
    <path
       id="path154"
       d="M 2711.238281 1389.300781 C 2711.238281 1389.300781 2709.988281 1370.589844 2745.117188 1361.53125 C 2760.863281 1357.472656 2795.921875 1364.691406 2773.691406 1399.183594 C 2750.585938 1435.050781 2729.96875 1422.101562 2729.96875 1422.101562 C 2729.96875 1422.101562 2778.1875 1384.371094 2758.890625 1367.109375 C 2737.601562 1348.070312 2729.421875 1385.800781 2729.421875 1385.800781 C 2729.421875 1385.800781 2720.84375 1385.351562 2711.238281 1389.300781 "
       style=" stroke:none;fill-rule:nonzero;fill:rgb(94.53125%,63.867188%,30.979919%);fill-opacity:1;" />
    <path
       id="path156"
       d="M 2723.707031 1424.261719 C 2723.707031 1424.261719 2710.570312 1417.152344 2715.792969 1401.359375 L 2734.671875 1404.640625 C 2734.671875 1404.640625 2727.398438 1421.730469 2745.164062 1423.800781 C 2745.164062 1423.800781 2728.070312 1427.859375 2723.707031 1424.261719 "
       style=" stroke:none;fill-rule:nonzero;fill:rgb(85.9375%,46.655273%,7.835388%);fill-opacity:1;" />
    <path
       id="path158"
       d="M 1491.800781 420.628906 C 1491.800781 420.628906 1511.429688 392.359375 1541.53125 412.378906 L 1559.859375 394.851562 C 1559.859375 394.851562 1542.730469 381.851562 1503.230469 405.171875 C 1477.378906 420.421875 1491.800781 420.628906 1491.800781 420.628906 "
       style=" stroke:none;fill-rule:nonzero;fill:rgb(33.714294%,52.146912%,84.764099%);fill-opacity:1;" />
    <path
       id="path160"
       d="M 1472.429688 448.339844 C 1472.429688 448.339844 1468.539062 415.890625 1522.859375 395.648438 C 1522.859375 395.648438 1503.230469 405.171875 1497.171875 437.511719 L 1472.429688 448.339844 "
       style=" stroke:none;fill-rule:nonzero;fill:rgb(45.092773%,60.351562%,94.139099%);fill-opacity:1;" />
    <path
       id="path162"
       d="M 1690.648438 276.25 C 1690.648438 276.25 1706.695312 266.117188 1708.386719 253.863281 C 1708.386719 253.863281 1724.015625 254.707031 1727.390625 259.777344 C 1727.390625 259.777344 1720.214844 280.054688 1711.761719 283.859375 C 1711.761719 283.859375 1692.746094 285.121094 1690.648438 276.25 "
       style=" stroke:none;fill-rule:nonzero;fill:rgb(97.65625%,59.179688%,27.43988%);fill-opacity:1;" />
    <path
       id="path164"
       d="M 1174.109375 1432.890625 C 1174.109375 1432.890625 1156.988281 1422.078125 1155.191406 1409.011719 C 1155.191406 1409.011719 1138.511719 1409.910156 1134.910156 1415.320312 C 1134.910156 1415.320312 1142.570312 1436.949219 1151.578125 1441 C 1151.578125 1441 1171.859375 1442.351562 1174.109375 1432.890625 "
       style=" stroke:none;fill-rule:nonzero;fill:rgb(97.65625%,59.179688%,27.43988%);fill-opacity:1;" />
    <path
       id="path166"
       d="M 1876.953125 595.640625 C 1876.953125 595.640625 1894.152344 584.777344 1895.964844 571.65625 C 1895.964844 571.65625 1912.703125 572.5625 1916.324219 577.992188 C 1916.324219 577.992188 1908.636719 599.71875 1899.585938 603.785156 C 1899.585938 603.785156 1879.210938 605.148438 1876.953125 595.640625 "
       style=" stroke:none;fill-rule:nonzero;fill:rgb(52.539062%,82.03125%,80.46875%);fill-opacity:1;" />
    <path
       id="path168"
       d="M 2211.664062 1093.621094 C 2211.664062 1093.621094 2201.730469 1081.5625 2196.375 1079.863281 C 2191.035156 1078.171875 2180.679688 1070.160156 2179.332031 1073.460938 C 2177.980469 1076.761719 2186.292969 1081.851562 2185.84375 1085.621094 C 2185.421875 1089.402344 2159.449219 1095.453125 2159.601562 1099.441406 C 2159.765625 1103.441406 2165.71875 1113.082031 2175.609375 1111.980469 C 2185.53125 1110.871094 2210.640625 1104.914062 2215.792969 1107.480469 C 2220.957031 1110.0625 2211.664062 1093.621094 2211.664062 1093.621094 "
       style=" stroke:none;fill-rule:nonzero;fill:rgb(100%,69.726562%,49.021912%);fill-opacity:1;" />
    <path
       id="path170"
       d="M 2479.457031 1034.929688 C 2464.800781 1054.617188 2447.625 1070.175781 2429.996094 1082.4375 C 2373.933594 1121.4375 2313.132812 1127.238281 2313.132812 1127.238281 C 2298.558594 1122.578125 2253.789062 1117.707031 2227.347656 1113.445312 L 2227.332031 1113.445312 C 2215.789062 1111.585938 2207.75 1109.847656 2207.210938 1108.296875 L 2207.875 1085.257812 C 2207.875 1085.257812 2304.96875 1080.128906 2321.050781 1072.667969 C 2346.390625 1050.828125 2368.792969 1022.46875 2383.382812 1000.304688 C 2395.714844 981.59375 2409.515625 967.773438 2432.257812 959.664062 C 2465.160156 947.9375 2524.96875 973.78125 2479.457031 1034.929688 "
       style=" stroke:none;fill-rule:nonzero;fill:rgb(68.164062%,76.5625%,100%);fill-opacity:1;" />
    <path
       id="path172"
       d="M 2434.925781 1067.941406 L 2429.980469 1082.441406 C 2373.933594 1121.441406 2313.121094 1127.242188 2313.121094 1127.242188 C 2301.425781 1127.242188 2253.785156 1117.710938 2227.332031 1113.449219 C 2228.375 1113.53125 2299.363281 1119.082031 2315.03125 1117.460938 C 2330.851562 1115.820312 2404.421875 1052.0625 2404.421875 1052.0625 L 2434.925781 1067.941406 "
       style=" stroke:none;fill-rule:nonzero;fill:rgb(61.521912%,68.943787%,95.701599%);fill-opacity:1;" />
    <path
       id="path174"
       d="M 2371.558594 1798.109375 L 2478.859375 1798.109375 C 2486.53125 1792.890625 2476.769531 1741.917969 2476.769531 1741.917969 C 2476.769531 1741.917969 2447.496094 1730.808594 2442.429688 1753.410156 C 2437.367188 1775.988281 2405.132812 1783.167969 2388.078125 1785.921875 C 2376.40625 1787.820312 2372.714844 1794.230469 2371.558594 1798.109375 "
       style=" stroke:none;fill-rule:nonzero;fill:rgb(13.719177%,21.972656%,38.426208%);fill-opacity:1;" />
    <path
       id="path176"
       d="M 2530.671875 1798.109375 L 2637.960938 1798.109375 C 2645.652344 1792.890625 2635.898438 1741.921875 2635.898438 1741.921875 C 2635.898438 1741.921875 2606.617188 1730.808594 2601.554688 1753.410156 C 2596.488281 1775.992188 2564.253906 1783.171875 2547.195312 1785.921875 C 2535.527344 1787.820312 2531.839844 1794.230469 2530.671875 1798.109375 "
       style=" stroke:none;fill-rule:nonzero;fill:rgb(13.719177%,21.972656%,38.426208%);fill-opacity:1;" />
    <path
       id="path178"
       d="M 2400.417969 1278.136719 C 2400.417969 1278.136719 2405.238281 1338.308594 2410.917969 1410.628906 C 2418.617188 1508.878906 2439.394531 1752.480469 2439.394531 1752.480469 C 2439.394531 1752.480469 2453.019531 1764.101562 2483.191406 1757.742188 C 2483.191406 1757.742188 2508.871094 1673.710938 2516.554688 1577.789062 C 2516.679688 1576.21875 2516.789062 1574.640625 2516.914062 1573.050781 C 2524.066406 1475.410156 2535.171875 1269.800781 2535.171875 1269.800781 L 2400.417969 1278.136719 "
       style=" stroke:none;fill-rule:nonzero;fill:rgb(16.868591%,27.830505%,54.492188%);fill-opacity:1;" />
    <path
       id="path180"
       d="M 2398.769531 1257.339844 C 2398.769531 1257.339844 2405.238281 1338.308594 2410.917969 1410.628906 L 2516.554688 1577.789062 C 2516.679688 1576.21875 2516.789062 1574.640625 2516.914062 1573.050781 C 2524.066406 1475.410156 2535.171875 1269.800781 2535.171875 1269.800781 L 2398.769531 1257.339844 "
       style=" stroke:none;fill-rule:nonzero;fill:rgb(13.719177%,21.972656%,38.426208%);fill-opacity:1;" />
    <path
       id="path182"
       d="M 2429.558594 1257.339844 C 2429.558594 1257.339844 2506.179688 1448.070312 2530.679688 1520.359375 C 2548.140625 1571.859375 2597.332031 1752.519531 2597.332031 1752.519531 C 2597.332031 1752.519531 2618.734375 1759.03125 2636.71875 1746.4375 C 2636.71875 1746.4375 2655.027344 1561.867188 2618.050781 1509.828125 C 2598.421875 1482.21875 2613.179688 1222.808594 2533.628906 1220.578125 C 2454.089844 1218.359375 2429.558594 1257.339844 2429.558594 1257.339844 "
       style=" stroke:none;fill-rule:nonzero;fill:rgb(16.868591%,27.830505%,54.492188%);fill-opacity:1;" />
    <path
       id="path184"
       d="M 2463.796875 976.1875 C 2475.476562 982.347656 2486.90625 982.730469 2496.800781 980.628906 C 2505.84375 978.726562 2513.613281 974.730469 2519.152344 971.191406 C 2524.84375 967.558594 2528.179688 964.394531 2528.179688 964.394531 C 2528.179688 964.394531 2527.792969 963.824219 2527.125 962.699219 C 2523.664062 956.789062 2513.195312 935.539062 2517.847656 901.394531 C 2517.910156 900.949219 2514.53125 901.582031 2509.410156 902.789062 C 2494.210938 906.390625 2463.65625 915.058594 2462.292969 915.445312 C 2462.277344 915.445312 2462.246094 915.445312 2462.246094 915.445312 C 2462.246094 915.445312 2461.871094 922.625 2460.617188 935.496094 C 2460.507812 936.632812 2460.398438 937.816406 2460.273438 939.046875 C 2460.105469 940.554688 2459.964844 942.15625 2459.761719 943.800781 C 2458.351562 957.183594 2463.796875 976.1875 2463.796875 976.1875 "
       style=" stroke:none;fill-rule:nonzero;fill:rgb(100%,69.726562%,49.021912%);fill-opacity:1;" />
    <path
       id="path186"
       d="M 2460.609375 935.5 C 2483.308594 940.699219 2517.175781 907.191406 2517.175781 907.191406 C 2514.707031 905.351562 2512.097656 903.894531 2509.410156 902.789062 C 2494.214844 906.390625 2463.652344 915.058594 2462.292969 915.445312 C 2462.261719 915.445312 2462.246094 915.445312 2462.246094 915.445312 C 2462.246094 915.445312 2461.859375 922.625 2460.609375 935.5 "
       style=" stroke:none;fill-rule:nonzero;fill:rgb(92.96875%,59.179688%,36.473083%);fill-opacity:1;" />
    <path
       id="path188"
       d="M 2452.898438 913.625 C 2452.898438 913.625 2462.25 916.976562 2474.136719 918.578125 C 2491.527344 920.925781 2514.40625 919.539062 2521.601562 898.488281 C 2533.707031 863.054688 2549.171875 841.808594 2513.546875 827.339844 C 2494.484375 819.59375 2482.269531 819.179688 2473.996094 822.136719 C 2466.785156 824.6875 2462.546875 829.785156 2459.328125 834.828125 C 2452.414062 845.671875 2438.496094 907.425781 2452.898438 913.625 "
       style=" stroke:none;fill-rule:nonzero;fill:rgb(100%,69.726562%,49.021912%);fill-opacity:1;" />
    <path
       id="path190"
       d="M 2431.28125 837.628906 C 2451.902344 852.457031 2480.453125 837.878906 2489.320312 841.824219 C 2498.175781 845.761719 2499.765625 860.625 2499.925781 865.339844 C 2500.082031 870.066406 2500.710938 874.050781 2512.75 871.222656 C 2514.71875 870.761719 2516.136719 870.898438 2517.113281 871.484375 C 2522.105469 874.445312 2515.726562 888.800781 2513.789062 891.90625 C 2513.789062 891.90625 2511.03125 902.1875 2517.175781 907.195312 C 2517.917969 907.792969 2529.984375 913.070312 2559.082031 868.558594 C 2563.652344 861.570312 2568.015625 845.828125 2560.957031 830.671875 C 2553.898438 815.519531 2524.421875 800.871094 2499.421875 793.105469 C 2490.0625 790.195312 2483.113281 790.300781 2477.679688 792.296875 C 2468.621094 795.605469 2463.78125 804.171875 2458.992188 812.777344 C 2450.941406 827.226562 2431.28125 837.628906 2431.28125 837.628906 "
       style=" stroke:none;fill-rule:nonzero;fill:rgb(66.209412%,27.050781%,23.925781%);fill-opacity:1;" />
    <path
       id="path192"
       d="M 2564.019531 1270.679688 C 2564.019531 1270.679688 2554.039062 1272.835938 2541.421875 1274.96875 C 2529.074219 1277.039062 2514.171875 1279.078125 2503.652344 1279 C 2449.851562 1278.578125 2404.832031 1262.738281 2404.832031 1262.738281 C 2394.722656 1262.738281 2390.101562 1247.078125 2388.453125 1225.226562 C 2387.308594 1210.429688 2387.5625 1192.777344 2388.375 1175.226562 C 2388.628906 1169.539062 2388.960938 1163.855469 2389.308594 1158.289062 C 2390.023438 1147.226562 2390.847656 1136.628906 2391.59375 1127.238281 C 2392.308594 1118.4375 2392.945312 1110.714844 2393.324219 1104.738281 C 2393.324219 1104.726562 2391.878906 1062.855469 2392.453125 1026.015625 C 2392.863281 999.578125 2407.703125 975.515625 2411.398438 971.589844 C 2422.175781 960.199219 2453.375 952.996094 2459.628906 952.003906 C 2460.105469 951.9375 2460.359375 951.894531 2460.359375 951.894531 C 2486.019531 966.304688 2520.570312 946.835938 2520.570312 946.835938 C 2521.347656 946.96875 2522.125 947.15625 2522.871094 947.316406 C 2525.425781 946.773438 2551.339844 950.621094 2557.386719 953.910156 C 2572.304688 962.042969 2580.96875 1052.265625 2580.96875 1052.265625 C 2583.460938 1113.546875 2580.335938 1211.699219 2585.175781 1249.160156 C 2586.777344 1261.496094 2574.84375 1268.179688 2564.019531 1270.679688 "
       style=" stroke:none;fill-rule:nonzero;fill:rgb(68.164062%,76.5625%,100%);fill-opacity:1;" />
    <path
       id="path194"
       d="M 2522.6875 947.359375 C 2522.6875 947.359375 2484.457031 986.792969 2457.125 978.714844 C 2457.125 978.714844 2453.488281 973.390625 2465.792969 971.683594 C 2478.113281 969.976562 2491.390625 970.671875 2522.6875 947.359375 "
       style=" stroke:none;fill-rule:nonzero;fill:rgb(61.521912%,68.943787%,95.701599%);fill-opacity:1;" />
    <path
       id="path196"
       d="M 2452.621094 890.753906 C 2452.621094 890.753906 2451.878906 895.34375 2462.542969 899.003906 C 2462.542969 899.003906 2471.511719 902.078125 2473.132812 897.371094 C 2473.132812 897.371094 2466.019531 890.597656 2452.621094 890.753906 "
       style=" stroke:none;fill-rule:nonzero;fill:rgb(100%,100%,100%);fill-opacity:1;" />
    <path
       id="path198"
       d="M 2543.648438 1096.53125 C 2543.648438 1096.53125 2488.125 1189.390625 2456.632812 1205.742188 C 2435.332031 1216.789062 2405.511719 1222.609375 2388.4375 1225.230469 C 2387.316406 1210.429688 2387.5625 1192.78125 2388.359375 1175.230469 C 2410.925781 1172.5 2445.289062 1168.140625 2445.289062 1168.140625 L 2543.648438 1096.53125 "
       style=" stroke:none;fill-rule:nonzero;fill:rgb(61.521912%,68.943787%,95.701599%);fill-opacity:1;" />
    <path
       id="path200"
       d="M 2470.527344 1049.867188 L 2440.941406 1156.6875 C 2440.941406 1156.6875 2406.109375 1158.898438 2389.300781 1158.289062 C 2390.015625 1147.226562 2390.027344 1146.859375 2390.785156 1137.476562 C 2390.785156 1137.476562 2430.769531 1116.636719 2470.527344 1049.867188 "
       style=" stroke:none;fill-rule:nonzero;fill:rgb(61.521912%,68.943787%,95.701599%);fill-opacity:1;" />
    <path
       id="path202"
       d="M 2292.332031 1164.601562 C 2292.332031 1164.601562 2282.378906 1152.539062 2277.039062 1150.839844 C 2271.6875 1149.148438 2261.335938 1141.140625 2259.980469 1144.441406 C 2258.640625 1147.738281 2266.945312 1152.828125 2266.503906 1156.601562 C 2266.066406 1160.378906 2240.113281 1166.429688 2240.269531 1170.421875 C 2240.425781 1174.421875 2246.371094 1184.0625 2256.28125 1182.960938 C 2266.179688 1181.851562 2291.300781 1175.890625 2296.453125 1178.460938 C 2301.609375 1181.039062 2292.332031 1164.601562 2292.332031 1164.601562 "
       style=" stroke:none;fill-rule:nonzero;fill:rgb(100%,69.726562%,49.021912%);fill-opacity:1;" />
    <path
       id="path204"
       d="M 2584.046875 1016.402344 C 2584.046875 1016.402344 2585.792969 1072.984375 2456.839844 1186.492188 L 2430.9375 1140.113281 C 2426.171875 1137.332031 2514.25 947.894531 2539.5625 949.410156 C 2588.601562 952.335938 2584.046875 1016.402344 2584.046875 1016.402344 "
       style=" stroke:none;fill-rule:nonzero;fill:rgb(68.164062%,76.5625%,100%);fill-opacity:1;" />
    <path
       id="path206"
       d="M 2446.371094 1134.582031 C 2446.371094 1134.582031 2299.699219 1151.339844 2294.285156 1154.261719 C 2288.859375 1157.171875 2277.199219 1168.519531 2281.089844 1182.753906 C 2281.089844 1182.753906 2356.992188 1192.289062 2398.765625 1192.121094 C 2434.789062 1191.960938 2458.105469 1186.191406 2458.105469 1186.191406 L 2446.371094 1134.582031 "
       style=" stroke:none;fill-rule:nonzero;fill:rgb(68.164062%,76.5625%,100%);fill-opacity:1;" />
    <path
       id="path208"
       d="M 2973.832031 1806.238281 L 218.480469 1806.238281 C 216.621094 1806.238281 215.09375 1804.71875 215.09375 1802.851562 L 215.09375 1801.050781 C 215.09375 1799.191406 216.621094 1797.671875 218.480469 1797.671875 L 2973.832031 1797.671875 C 2975.695312 1797.671875 2977.210938 1799.191406 2977.210938 1801.050781 L 2977.210938 1802.851562 C 2977.210938 1804.71875 2975.695312 1806.238281 2973.832031 1806.238281 "
       style=" stroke:none;fill-rule:nonzero;fill:rgb(18.041992%,20.776367%,32.151794%);fill-opacity:1;" />
  </g>
</svg>
