<?xml version="1.0" encoding="UTF-8" standalone="no"?>
<svg
   xmlns:dc="http://purl.org/dc/elements/1.1/"
   xmlns:cc="http://creativecommons.org/ns#"
   xmlns:rdf="http://www.w3.org/1999/02/22-rdf-syntax-ns#"
   xmlns:svg="http://www.w3.org/2000/svg"
   xmlns="http://www.w3.org/2000/svg"
   id="svg247"
   version="1.2"
   viewBox="0 0 3100 1999.9923"
   height="1999.9923pt"
   width="3100pt">
  <metadata
     id="metadata253">
    <rdf:RDF>
      <cc:Work
         rdf:about="">
        <dc:format>image/svg+xml</dc:format>
        <dc:type
           rdf:resource="http://purl.org/dc/dcmitype/StillImage" />
        <dc:title></dc:title>
      </cc:Work>
    </rdf:RDF>
  </metadata>
  <defs
     id="defs251" />
  <g
     transform="translate(0,-0.0078125)"
     id="surface2531">
    <path
       id="path2"
       d="M 3100,2000 H 0 V 0.0078125 H 3100 V 2000"
       style="fill:#ffffff;fill-opacity:1;fill-rule:nonzero;stroke:none" />
    <path
       id="path4"
       d="m 1318.8398,537.44141 c 0,0 -27.2187,79.63671 -21.4882,90.01953 5.7382,10.36718 39.3672,44.76953 45.4492,50.85937 6.0898,6.08985 21.3398,49.66016 21.3398,49.66016 l 60.1602,-5.17188 -20.4297,-75.58984 c 0,0 -29.75,-102.98047 -47.8711,-102.98047 -18.1289,0 -37.1602,-6.79687 -37.1602,-6.79687"
       style="fill:#f5a38f;fill-opacity:1;fill-rule:nonzero;stroke:none" />
    <path
       id="path6"
       d="m 474.26172,774.03125 97.89062,23.48828 C 551.55469,728.5 533.71875,655.57812 532.92578,635.19141 c -1.11719,-28.72266 -60.97266,-71.78125 -79.30859,-72.32032 -19.6875,-0.57031 -25.63672,80.85938 -17.79688,97.58985 3.98047,8.48828 45,13.55859 45,13.55859 0,0 -5.60547,45.92969 -6.55859,100.01172"
       style="fill:#f5a38f;fill-opacity:1;fill-rule:nonzero;stroke:none" />
    <path
       id="path8"
       d="m 487.42969,576.96094 c -7.875,-5.64063 -17.08985,-9.13282 -26.16016,-12.35157 1.34375,3.78907 2.40234,7.92188 3.41016,11.85938 3.66015,14.33203 8.43359,29.85937 7.42187,54.30078 -0.30859,7.40234 -2.05859,18 -8.66015,26.49219 -1.50391,1.89844 -6.31641,5.89844 -12.78125,10.89844 9.96093,2.83984 15.35156,3.69921 20.68359,4.44921 8.55078,-8.14843 22.49219,-22.07812 23.28125,-41.07812 0.71875,-17.26172 -2.71484,-37.74219 -7.19531,-54.57031"
       style="fill:#f37357;fill-opacity:1;fill-rule:nonzero;stroke:none" />
    <path
       id="path10"
       d="M 405.35547,704.98828 392.76562,692 l 1.05079,-0.67188 c 11.60937,-7.35937 58.125,-35.29687 63.24609,-40.76953 6.08203,-6.61718 7.74219,-14.85937 8.06641,-20.59765 1.05859,-18.98047 -3.22657,-31 -6.4961,-42.10157 -2.43359,-8.23828 -5.18359,-17.57812 -12.5664,-19.83984 -5.8086,-1.25781 -34.64063,0.69922 -40.30469,0.87109 l -0.42578,-16.62109 c 10.71093,-0.32812 38.37109,-2.76953 48.05859,0.10938 19.81641,5.89062 22.76563,23.99218 26.70313,35.9414 4.52734,13.75781 6.42578,27.91797 5.63281,42.10938 -0.64844,11.58984 -4.85547,21.92187 -12.16797,29.8789 -4.73828,5.16016 -21.69531,16 -53.38281,35.49219 -5.69922,3.5 -10.6211,6.52734 -13.78125,8.52734 l -1.04297,0.66016"
       style="fill:#335187;fill-opacity:1;fill-rule:nonzero;stroke:none" />
    <path
       id="path12"
       d="M 422.11719,657.91016 C 411.3125,606.58984 416.89844,523.76953 416.89844,523.76953 l -117.26563,4.55859 c 0,0 12.00391,82.14063 5.21485,134.14063 -6.78516,52.01172 -8.52735,57.51953 -8.52735,57.51953 0.23438,6.01172 31.48828,9.67188 69.8086,8.18359 38.3164,-1.49218 69.1914,-7.57031 68.95703,-13.57031 0,0 -2.16407,-5.37109 -12.96875,-56.6914"
       style="fill:#335187;fill-opacity:1;fill-rule:nonzero;stroke:none" />
    <path
       id="path14"
       d="m 412.24219,528.48828 -107.59766,4.18359 c 1.10547,8.32813 3.28125,25.98829 4.84375,47.01954 l 101.57422,-3.95313 c -0.0742,-21.08984 0.72266,-38.86719 1.17969,-47.25"
       style="fill:#f5cc7d;fill-opacity:1;fill-rule:nonzero;stroke:none" />
    <path
       id="path16"
       d="m 309.48828,579.69141 14.03906,-0.55079 c 0.004,-3.58203 1.04297,-6.28906 4.17969,-7.39062 8.44141,-2.94922 11.22656,5.51172 21.35938,6.39844 l 5.29296,-0.20703 c 1.76954,-0.26172 3.70313,-0.72266 5.86719,-1.44141 14.47266,-4.82031 14.6836,-23.30078 14.6836,-23.30078 18.28515,-4.91797 30.48437,-9.76953 36.91796,-16.09766 0.14454,-3.46094 0.29297,-6.37109 0.41407,-8.61328 l -107.59766,4.18359 c 1.10547,8.32813 3.28125,25.98829 4.84375,47.01954"
       style="fill:#f37357;fill-opacity:1;fill-rule:nonzero;stroke:none" />
    <path
       id="path18"
       d="m 411.0625,575.73828 -101.57422,3.95313 c 1.97266,26.4375 2.97656,58.19921 -0.3125,83.41015 -4.84766,37.16797 -7.15625,50.82031 -8.12109,55.71875 1.84765,0.89844 6.99218,2.69922 19.9375,3.94922 12.48047,1.19922 28.44922,1.51172 44.95703,0.87109 16.51172,-0.64062 32.40625,-2.1914 44.7539,-4.35937 12.8125,-2.25 17.80079,-4.45313 19.57422,-5.48047 -1.34375,-4.8125 -4.70312,-18.25 -12.42578,-54.92969 -5.23828,-24.88281 -6.70312,-56.62109 -6.78906,-83.13281"
       style="fill:#f37357;fill-opacity:1;fill-rule:nonzero;stroke:none" />
    <path
       id="path20"
       d="m 326.50391,611 c 3.40234,-8.60156 -2.98438,-22.94922 -2.97657,-31.85938 l -14.03906,0.55079 c 0.96484,12.92968 1.69531,27.1289 1.80859,41.21875 6.72266,-0.94922 13.09766,-4.58985 15.20704,-9.91016"
       style="fill:#b5573f;fill-opacity:1;fill-rule:nonzero;stroke:none" />
    <path
       id="path22"
       d="m 349.06641,578.14844 c 1.57031,0.14062 3.32421,0.0898 5.29296,-0.20703 l -5.29296,0.20703"
       style="fill:#b5573f;fill-opacity:1;fill-rule:nonzero;stroke:none" />
    <path
       id="path24"
       d="m 374.66406,546.89844 c 0,0 -0.22656,16.65234 -14.77734,20.83984 -14.55078,4.20313 -28.36719,-6.45703 -39.30469,-3.00781 -10.9375,3.44922 3.07031,26.50781 -1.75391,37.28906 -4.82421,10.78125 -24.35156,10.62891 -27.27734,-4.69141 -2.92969,-15.3164 9.34766,-21.84765 3.16016,-38.54687 -6.1836,-16.70313 -15.39453,-29.04297 -3.94532,-46.49219 12.35157,-18.83984 41.38282,3.94141 61.50391,-9.30078 27.83984,-18.32812 69.36328,-4.47656 64.62891,20.78125 -1.94141,10.35938 -15.67969,16.65234 -42.23438,23.12891"
       style="fill:#fadeb0;fill-opacity:1;fill-rule:nonzero;stroke:none" />
    <path
       id="path26"
       d="m 333.10156,637.46875 c 0.41406,10.65234 -4.69922,19.5 -11.42187,19.76172 -6.72657,0.25781 -12.51172,-8.16016 -12.92578,-18.8086 -0.41407,-10.65234 4.70312,-19.49218 11.42578,-19.75 6.72265,-0.26171 12.50781,8.15625 12.92187,18.79688"
       style="fill:#fadeb0;fill-opacity:1;fill-rule:nonzero;stroke:none" />
    <path
       id="path28"
       d="m 335.69141,679.83984 c -0.3086,5.44141 -3.48047,9.67188 -7.08594,9.42969 -3.60938,-0.23047 -6.28125,-4.82812 -5.96875,-10.26953 0.30859,-5.44141 3.48047,-9.67188 7.08594,-9.44141 3.60546,0.24219 6.28125,4.83985 5.96875,10.28125"
       style="fill:#fadeb0;fill-opacity:1;fill-rule:nonzero;stroke:none" />
    <path
       id="path30"
       d="m 453.61719,562.87109 c 0,0 45.01562,38.16016 38.63672,49.16797 -6.375,11.01172 -44.85157,-18.48047 -44.85157,-18.48047 0,0 37.76172,25.51172 42.46094,34.86328 4.69922,9.35938 -1.60156,20.27735 -17.39062,11.9375 -15.78516,-8.34765 -26.15625,-19.12109 -26.15625,-19.12109 0,0 37.61328,23.55078 38.04687,34.70313 0.43359,11.13671 -49.23047,-2.98047 -49.23047,-2.98047 0,0 -8.6289,-73.85938 18.48438,-90.08985"
       style="fill:#f5a38f;fill-opacity:1;fill-rule:nonzero;stroke:none" />
    <path
       id="path32"
       d="m 475.61328,529.05859 c 0,0 -13.82422,0.58985 -13.31641,13.60157 0.50782,13.01171 22.02344,38.55859 22.02344,38.55859 l 12.00781,24.30078 36.03125,25.40234 c 0,0 -8.16015,-43.04296 -22.99218,-57.29296 -14.83203,-14.25 -33.75391,-44.57032 -33.75391,-44.57032"
       style="fill:#f5a38f;fill-opacity:1;fill-rule:nonzero;stroke:none" />
    <path
       id="path34"
       d="m 1497.0938,1022.4375 c 0,0 271.4257,13.6172 282.5585,13.9492 26.5274,0.7774 17.5899,0.1485 31.5782,0.8281 l -0.023,0.031 c 0.7578,0.051 1.1914,0.082 1.1914,0.082 l -0.1445,24.9571 c -29.9023,26.9023 -118.0976,561.2929 -123.8555,561.0234 -6.4375,-0.3086 -189.9921,-13.7813 -180.7382,-20.8516 54.0586,-41.25 129.1796,-385.2812 133.8828,-419.3984 -73.5977,2.1172 -170.8438,-25.6719 -170.8438,-25.6719 l 26.3946,-134.9492"
       style="fill:#335187;fill-opacity:1;fill-rule:nonzero;stroke:none" />
    <path
       id="path36"
       d="m 1615.7461,1568.0781 -197.4297,219.4024 203.6094,0.4297 78.2148,-55.5704 102.5899,-135.9882 -186.9844,-28.2735"
       style="fill:#b5573f;fill-opacity:1;fill-rule:nonzero;stroke:none" />
    <path
       id="path38"
       d="m 1697.3242,1580.1289 -4.1758,110.6406 16.3321,97.1407 h 178.9218 l 23.8985,-246 -214.9766,38.2187"
       style="fill:#b5573f;fill-opacity:1;fill-rule:nonzero;stroke:none" />
    <path
       id="path40"
       d="m 1811.5039,1037.5586 90.4883,4.9609 c 0,0 2.0625,0.7266 2.6953,0.8399 7.3672,1.3672 0.668,265.039 -5.8984,363.5195 -6.5703,98.4805 -19.918,243.2188 -19.918,243.2188 0,0 -152.8242,-12.1797 -190.4805,-26.7891 -15.625,-6.0703 -103.789,-27.8594 -103.789,-27.8594 0,0 110.5117,-199.0195 129.9726,-283.4101 15.0156,-65.0899 42.125,-171.8828 52.7149,-195.9727 24.332,-55.3086 44.2148,-78.5078 44.2148,-78.5078"
       style="fill:#94d9c7;fill-opacity:1;fill-rule:nonzero;stroke:none" />
    <path
       id="path42"
       d="m 1899.3984,962.72656 2.5664,79.88674 c 0,0 -58.5625,100.918 -88.6328,86.8594 -25.2382,-11.8008 -2.8359,-88.5704 -2.8359,-88.5704 0,0 4.3633,-17.6015 10.4219,-37.8203 4.2343,-14.13278 7.7578,-29.44138 7.5,-40.67184 -0.6289,-27.30079 70.9804,0.3164 70.9804,0.3164"
       style="fill:#f5a38f;fill-opacity:1;fill-rule:nonzero;stroke:none" />
    <path
       id="path44"
       d="m 1829.4258,780.52344 c 0,0 -29.8477,44.99218 -32.082,82.85547 -2.2149,37.86718 5.789,63.70312 5.789,63.70312 l 95.7852,-114.48828 -69.4922,-32.07031"
       style="fill:#f5cc7d;fill-opacity:1;fill-rule:nonzero;stroke:none" />
    <path
       id="path46"
       d="m 1787.4375,855.63281 c -1.3594,13.26563 3.8008,24.64453 11.5039,25.4336 7.6992,0.78125 15.0469,-9.32813 16.3945,-22.57813 1.3477,-13.26562 -3.8007,-24.65625 -11.5156,-25.43359 -7.6992,-0.79297 -15.0312,9.3164 -16.3828,22.57812"
       style="fill:#f38a7d;fill-opacity:1;fill-rule:nonzero;stroke:none" />
    <path
       id="path48"
       d="m 1929.9102,830.93359 c 2.1953,-0.46875 1.9804,109.75 -29.9532,135.6875 -31.957,25.9375 -87.5468,28.21485 -103.789,2.08985 -17.9688,-28.89844 -0.8867,-145.03516 46.6328,-169.69922 47.5078,-24.66406 87.1094,31.92187 87.1094,31.92187"
       style="fill:#f5a38f;fill-opacity:1;fill-rule:nonzero;stroke:none" />
    <path
       id="path50"
       d="m 1938.0078,762.59766 c 24.3906,21.3789 36.1992,37 52.6953,75.01562 20.293,46.74219 -19.9648,95.17578 -53.7187,114.42188 -33.7539,19.24609 -36.6172,42.87109 -36.6172,42.87109 l -1.3438,-14.69922 c -1.4453,-11.41797 2.0079,-17.93359 5.2422,-24.83594 2.875,-6.14062 12.1016,-27.1875 15.7071,-32.74218 9.4961,-14.64844 11.3593,-17.82032 6.6718,-31.73829 -3.6132,-10.71875 0.5703,-34.34765 -5.0078,-52.01171 l -45.4375,-9.79688 c 0,0 -28.4258,-6.83594 -42.789,-23.39844 -41.2305,-47.5664 40.2695,-100.60547 104.5976,-43.08593"
       style="fill:#f5cc7d;fill-opacity:1;fill-rule:nonzero;stroke:none" />
    <path
       id="path52"
       d="m 1915.8516,902.94531 c -5.5899,12.09375 -4.4336,24.53906 2.5898,27.79297 7.0352,3.25391 17.2578,-3.91406 22.8633,-16.00781 5.6016,-12.09375 4.4297,-24.53906 -2.5938,-27.79297 -7.0351,-3.25391 -17.2695,3.91406 -22.8593,16.00781"
       style="fill:#f5a38f;fill-opacity:1;fill-rule:nonzero;stroke:none" />
    <path
       id="path54"
       d="m 2225.4648,598.91016 c -5.1757,21.21093 -14.4804,54.74218 -14.4804,54.74218 0.7383,9.21875 3.4609,47.57813 6.6914,94.59766 l -69.1094,-27.65625 c 0,0 0.8359,-76.61328 -2.2578,-81.30469 -2.5977,-3.96484 -6.9766,0.98438 -28.1602,-29.32422 -6.1171,-8.75781 -7.2695,-24.38281 -7.2695,-24.38281 0,0 -1.2578,-19.24219 3.0664,-21.03516 4.3125,-1.79296 9.2774,1.08204 10.8516,4.40625 1.5625,3.32422 1.1523,11.07032 2.7109,14.38282 1.5742,3.33984 11.5625,7.33593 15.7774,7.1289 4.2031,-0.20312 -0.5196,-56.91406 -0.5196,-56.91406 0,0 -2.3515,-16.07812 -3.5586,-21.34766 -1.0117,-4.48828 -5.0898,-17.64062 -5.0898,-17.64062 0,0 -4.7891,-19.08984 1.1367,-20.53906 3.4883,-0.86328 12.3828,14.64062 18.5,31.10547 6.5703,17.71875 10.293,36.50781 12.168,36.26171 4.4179,-0.58593 2.0781,-31.6914 2.0781,-31.6914 0,0 -4.3906,-14.2461 -4.2812,-20.96485 -4.1602,-8.23828 -6.9141,-23.51171 0.3945,-24.76953 1.3437,-0.23437 10.9883,19.17188 10.9883,19.17188 0,0 3.7929,13.65625 5.9961,20.04687 3.8984,11.26172 4.4882,29.05469 6.5117,36.89453 1.6992,6.52735 3.2187,3.84375 3.914,4.1211 0.5352,0.20312 -0.3945,-8.78906 -1.4765,-21.16016 -0.5469,-6.23828 0.164,-13.42187 -1.5742,-20.51172 -1.6133,-6.57031 -2.543,-15.98437 -2.9571,-21.66406 -1.1875,-16.07812 8.9532,-14.4375 12.4414,0.27344 1.3399,5.59765 2.7383,11.71484 4.1328,17.91406 5.4454,24.09766 5.2969,47.33594 7.8946,47.52734 3.3672,0.2461 1.1523,-42.03906 1.1523,-42.03906 0,0 5.1719,-23.41406 10.3164,-1.68359 5.9688,25.20703 5.3516,45.76172 5.2696,46.66406 -0.5469,6.16016 3.8984,28.16406 -1.2579,49.39063"
       style="fill:#f8a391;fill-opacity:1;fill-rule:nonzero;stroke:none" />
    <path
       id="path56"
       d="m 1902.0859,1042.6484 250.836,-147.19528 -11.1055,-236.79296 h 82.0703 c 0,0 42.0235,290.10546 27.4688,320.1914 -15.0391,31.06644 -183.7578,158.97654 -217.4961,214.47654 -19.4375,31.9805 -59.9727,485.2813 -66.1016,489.2032 -43.664,22.7187 -178.4805,26.9882 -175.2969,13.207 87.7461,-380.8789 109.625,-653.0899 109.625,-653.0899"
       style="fill:#335187;fill-opacity:1;fill-rule:nonzero;stroke:none" />
    <path
       id="path58"
       d="m 1342.6484,701.10156 c 0,0 56.8125,413.26954 75.6329,432.08984 18.8203,18.8203 130.5898,41.6094 130.5898,41.6094 l -16.7695,-152.3594 -104.6914,-328.6914 -84.7618,7.35156"
       style="fill:#335187;fill-opacity:1;fill-rule:nonzero;stroke:none" />
    <path
       id="path60"
       d="m 1111.2617,1787.9102 c 0,0 7.8164,-36.3086 12,-47.9297 13.4571,-37.4297 68.4766,-143.6289 68.4766,-143.6289 l 252.9101,8.6367 c 0,0 42.5625,100.0625 51.8907,134.9922 3.6914,13.8008 7.7617,47.9297 7.7617,47.9297 h -393.0391"
       style="fill:#174554;fill-opacity:1;fill-rule:nonzero;stroke:none" />
    <path
       id="path62"
       d="m 1281.75,756.92187 c 0,0 149.6211,-15.98046 196.5117,90.26954 46.8867,106.23828 15.7774,261.34769 -115.9726,261.34769 -131.75,0 -171.3477,1.9023 -198.8907,-5.3672 -27.539,-7.2735 -74.0703,-36.1719 -154.2695,-62.4414 -80.19921,-26.2618 -130.64453,-230.80863 22.5195,-204.16019 68.3399,11.89063 48.0313,-57.69922 112.9727,-86.91015 64.9297,-29.21094 137.1289,7.26171 137.1289,7.26171"
       style="fill:#174554;fill-opacity:1;fill-rule:nonzero;stroke:none" />
    <path
       id="path64"
       d="m 2680.0078,403.96875 -15.8515,15.41406 -27.629,-22.75781 -25.9492,19.67969 -23.457,-13.65235 -6.9102,11.8711 31.375,18.26172 24.5782,-18.65235 28.75,23.67969 23.8359,-23.19922 -8.7422,-10.64453"
       style="fill:#4fbda3;fill-opacity:1;fill-rule:nonzero;stroke:none" />
    <path
       id="path66"
       d="m 1895.7383,580.33203 -156.707,-31.62109 c -18.4961,-3.73438 -30.4571,-21.73438 -26.7227,-40.23047 l 17.8125,-88.24219 c 3.7227,-18.49609 21.7344,-30.45703 40.2305,-26.72266 l 156.707,31.6211 c 18.4844,3.73437 30.457,21.75 26.7227,40.23047 l -17.8086,88.24609 c -3.7227,18.49219 -21.7383,30.45313 -40.2344,26.71875"
       style="fill:#fadeb0;fill-opacity:1;fill-rule:nonzero;stroke:none" />
    <path
       id="path68"
       d="m 1728.2031,464.98828 -80.0078,55.11328 85.3906,0.60547 -5.3828,-55.71875"
       style="fill:#fadeb0;fill-opacity:1;fill-rule:nonzero;stroke:none" />
    <path
       id="path70"
       d="m 1790.3242,467.08984 20.1719,3.53125 c 0,0 29,-14 31.082,-20.53125 2.0664,-6.54297 0.6602,-21.49609 4.9258,-22.50781 4.2891,-1.00781 12.875,-0.80078 16.4063,9.0625 2.5781,7.17188 -5.1602,30.01563 -3.0899,32.03516 1.2891,1.27734 12.8281,3.63672 21.2735,5.23047 5.5664,1.03515 10.0742,5.08984 11.7382,10.49218 v 0.0234 c 1.1133,3.64844 -0.4882,7.59766 -3.8359,9.44531 l -5.207,2.88282 2.6172,5.36718 c 1.9492,3.9961 0.3125,8.82032 -3.6836,10.79297 l -4.0547,2.02344 1.8828,3.23047 c 2.4375,4.16015 0.7187,9.5039 -3.6953,11.46875 l -3.5703,1.58984 0.3046,0.96485 c 1.254,4.00781 -0.746,8.30859 -4.625,9.91015 l -3.5546,1.48828 -53.7305,-9.44531 c -5.0313,-0.88281 -9.8281,-2.77734 -14.1055,-5.58984 l -18.3437,-6.4375 c -1.9766,-0.69532 -3.1407,-2.73047 -2.7422,-4.77344 l 8.9687,-46.89844 c 0.4297,-2.26562 2.6016,-3.76172 4.8672,-3.35547"
       style="fill:#ffffff;fill-opacity:1;fill-rule:nonzero;stroke:none" />
    <path
       id="path72"
       d="m 831.3125,564.17187 -13.09375,-18.05078 -22.28516,0.5586 c -2.53906,0.0586 -4.04687,-2.8086 -2.55468,-4.8711 l 13.11718,-18.01953 -7.41797,-21.02734 c -0.84375,-2.39063 1.42579,-4.72266 3.83985,-3.9336 l 21.19922,6.90235 17.70312,-13.55078 c 2.01563,-1.53907 4.92578,-0.10157 4.92578,2.4414 l -0.0156,22.28907 18.35937,12.64843 c 2.08985,1.44141 1.6211,4.66016 -0.79687,5.44141 l -21.20703,6.87109 -6.35547,21.36719 c -0.72656,2.44141 -3.92578,2.98047 -5.41797,0.93359"
       style="fill:#94d9c7;fill-opacity:1;fill-rule:nonzero;stroke:none" />
    <path
       id="path74"
       d="m 2253.8672,327.90625 -17.6875,-4.03516 3.3594,-29.17578 -25.1368,-9.09765 -1.0507,-22.23438 -11.2696,0.52344 1.4258,29.75781 23.8086,8.61328 -3.4961,30.35156 26.6172,6.07032 3.4297,-10.77344"
       style="fill:#f5cc7d;fill-opacity:1;fill-rule:nonzero;stroke:none" />
    <path
       id="path76"
       d="m 774.79297,391.21875 -13.39844,-19.375 -23.5625,0.0508 c -2.68359,0 -4.21094,-3.07422 -2.58203,-5.20312 l 14.28906,-18.73438 -7.32812,-22.39453 c -0.83594,-2.54688 1.61718,-4.94531 4.14843,-4.05469 l 22.23047,7.79688 19.03125,-13.89063 c 2.16797,-1.58203 5.20703,0.008 5.14844,2.6875 l -0.55078,23.55469 19.08984,13.8125 c 2.17578,1.57031 1.60157,4.95312 -0.96875,5.71875 l -22.57031,6.75391 -7.23047,22.42968 c -0.82422,2.55469 -4.21875,3.05078 -5.74609,0.84766"
       style="fill:#f37357;fill-opacity:1;fill-rule:nonzero;stroke:none" />
    <path
       id="path78"
       d="m 1578.293,369.54297 7.1797,3.93359 -9.6133,17.54297 25.2578,9.33203 -2.8281,7.6836 -34.1719,-12.625 14.1758,-25.86719"
       style="fill:#4fbda3;fill-opacity:1;fill-rule:nonzero;stroke:none" />
    <path
       id="path80"
       d="m 1547.0898,262.54687 -25.3359,8.3711 -17.9687,-39.28125 -38.5625,7.66797 -18.2539,-27.20313 -13.7774,9.23438 24.4297,36.38672 36.5352,-7.26172 18.7031,40.86718 38.125,-12.60156 -3.8946,-16.17969"
       style="fill:#f5cc7d;fill-opacity:1;fill-rule:nonzero;stroke:none" />
    <path
       id="path82"
       d="m 2862.9375,763.36328 -23.1445,3.12891 -10.5352,20.83593 c -1.1953,2.3711 -4.6055,2.33594 -5.75,-0.0586 l -10.1289,-21.03516 -23.0742,-3.58593 c -2.6211,-0.41016 -3.6406,-3.65235 -1.7227,-5.48828 l 16.8828,-16.13282 -3.7109,-23.04687 c -0.4414,-2.625 2.3399,-4.59766 4.6758,-3.33594 l 20.5586,11.06641 20.7734,-10.66016 c 2.3711,-1.21484 5.0977,0.8125 4.625,3.42969 l -4.1875,22.96875 16.5664,16.46094 c 1.8828,1.875 0.8086,5.09765 -1.8281,5.45312"
       style="fill:#94d9c7;fill-opacity:1;fill-rule:nonzero;stroke:none" />
    <path
       id="path84"
       d="m 1051.9336,349.53906 -27.8828,1.11719 -10.961,26.25 -31.33589,-0.96875 -3.0586,31.56641 -35.48047,0.47265 -6.40234,28.71094 -34.0625,6.03125 -2.28516,-12.88281 25.46875,-4.51953 6.75391,-30.29297 34.10547,-0.45703 3.11328,-32.08985 34.57425,1.0625 10.7109,-25.63281 25.8281,-1.03125 3.5196,-18.30078 12.8632,2.46484 -5.4687,28.5"
       style="fill:#f5cc7d;fill-opacity:1;fill-rule:nonzero;stroke:none" />
    <path
       id="path86"
       d="m 702.77734,580.44922 c 6.61719,31.53906 -13.58203,62.47265 -45.11718,69.08984 -31.53516,6.60938 -62.46875,-13.59765 -69.08985,-45.14062 -6.61719,-31.53907 13.58203,-62.46875 45.11719,-69.07813 31.53906,-6.60937 62.46875,13.58985 69.08984,45.12891"
       style="fill:#f5cc7d;fill-opacity:1;fill-rule:nonzero;stroke:none" />
    <path
       id="path88"
       d="m 617.04297,607.87891 c 3.53906,16.85937 20.07812,27.66015 36.9375,24.13281 16.86328,-3.54297 27.66015,-20.08203 24.12109,-36.94141 l -61.05859,12.8086"
       style="fill:#eeeeee;fill-opacity:1;fill-rule:nonzero;stroke:none" />
    <path
       id="path90"
       d="m 1230.8359,265.82422 c 0,0 3.1914,-9.60156 14.4336,-13.22266 10.0313,-3.22265 19.5039,2.52344 22.4922,11.80469 3.4453,10.75 -1.8828,26.49609 -22.7812,45.40625 -28.0078,-3.17578 -41.5196,-12.86328 -44.9805,-23.60547 -2.9727,-9.27734 1.3672,-19.48047 11.3984,-22.70312 11.2422,-3.6211 19.4375,2.32031 19.4375,2.32031"
       style="fill:#f38a7d;fill-opacity:1;fill-rule:nonzero;stroke:none" />
    <path
       id="path92"
       d="m 1149.293,296.72656 c 10.2539,-1.55078 18.414,-3.32031 26.3476,-5.4414 2.6172,-0.69532 7.3672,-1.125 8.5703,-3.85547 0.6446,-1.42188 0.4102,-2.87891 -0.957,-3.78516 -2.5117,-1.66406 -6.2305,0.24219 -8.8555,0.94922 -8.0507,2.14062 -17.2539,4.17578 -26.6679,5.70312 -1.7696,0.28516 -2.8321,2.34766 -2.4336,3.99219 0.4414,1.86719 2.2226,2.71094 3.9961,2.4375"
       style="fill:#f38a7d;fill-opacity:1;fill-rule:nonzero;stroke:none" />
    <path
       id="path94"
       d="m 1289.0156,281.70312 c 3.8633,-0.95703 7.7071,-1.98828 11.5625,-3.00781 3.6836,-0.97656 8.1953,-1.48437 11.3516,-3.66015 2.3242,-1.60547 1.6562,-5.08594 -1.2969,-5.34375 -3.8437,-0.32813 -7.9609,1.44531 -11.6562,2.43359 -3.836,1.02734 -7.6875,2.04687 -11.5196,3.14062 -4.0898,1.16797 -2.5937,7.46485 1.5586,6.4375"
       style="fill:#f38a7d;fill-opacity:1;fill-rule:nonzero;stroke:none" />
    <path
       id="path96"
       d="m 1198.0977,337.75391 c 2.6914,-9.38672 7.9218,-13.42969 11.5937,-17.72266 1.9727,-2.29297 -0.3008,-5.5 -3.125,-4.25781 -7.7226,3.39062 -12.6758,12.41797 -14.8164,20.18359 -1.125,4.09375 5.1719,5.88281 6.3477,1.79688"
       style="fill:#f38a7d;fill-opacity:1;fill-rule:nonzero;stroke:none" />
    <path
       id="path98"
       d="m 1247.8359,346.40234 c -1.2031,-3.9375 -1.625,-7.98828 -1.1289,-12.07812 0.2969,-2.51172 3.2149,-10.04688 -1.6132,-10.04688 -4.5469,0 -5.0079,7.60938 -5.254,10.82813 -0.3203,4.3164 0.2266,8.73828 1.5196,12.85937 1.2851,4.0625 7.7109,2.53907 6.4765,-1.5625"
       style="fill:#f38a7d;fill-opacity:1;fill-rule:nonzero;stroke:none" />
    <path
       id="path100"
       d="m 1274.1133,313.58984 c 2.5547,0.9961 5.1015,1.98438 7.6445,2.98047 2.5469,0.98828 5.1836,2.71485 7.8555,1.39453 1.4961,-0.73828 1.7031,-2.49609 1.1445,-3.875 -1.0078,-2.51562 -4.832,-3.16015 -7.1484,-4.05468 -2.5664,-0.97657 -5.1133,-1.94141 -7.668,-2.92969 -1.6953,-0.64453 -3.6914,0.69922 -4.1484,2.32812 -0.5391,1.89063 0.625,3.5 2.3203,4.15625"
       style="fill:#f38a7d;fill-opacity:1;fill-rule:nonzero;stroke:none" />
    <path
       id="path102"
       d="m 1198.168,249.15234 c -13.3399,-17.52343 -13.1992,-17.66406 -15.2852,-18.84765 -2.1289,-1.21875 -4.9336,0.71484 -4.289,3.17187 0.6171,2.4336 0.5625,2.01953 14.664,20.41406 1.1211,1.45704 3.5977,1.26172 4.8125,0.0859 1.457,-1.40234 1.207,-3.34765 0.098,-4.82422"
       style="fill:#f38a7d;fill-opacity:1;fill-rule:nonzero;stroke:none" />
    <path
       id="path104"
       d="m 1233.2383,239.73828 c 0.414,-3.60937 0.4609,-7.21484 0.1094,-10.83203 -0.3282,-3.35547 -0.3829,-8.54688 -3.9649,-10 -0.7656,-0.31641 -1.9687,0.0117 -2.4922,0.62109 -2.2539,2.58203 -0.5351,6.8086 -0.2539,9.91407 0.3164,3.3789 0.2617,6.78906 0,10.17578 -0.1406,1.76953 1.5313,3.32031 3.2344,3.35547 1.9375,0.0312 3.1484,-1.46485 3.3672,-3.23438"
       style="fill:#f38a7d;fill-opacity:1;fill-rule:nonzero;stroke:none" />
    <path
       id="path106"
       d="m 1283.6484,229.96484 c 0.1954,-1.64062 -1.3828,-2.74218 -2.8086,-2.91406 -2.9257,-0.35937 -5.7421,3.12109 -7.625,5.02344 -2.1992,2.21094 -4.1562,4.625 -5.9609,7.16015 -1.0469,1.46875 -0.2851,3.69922 1.1641,4.5586 1.707,1.01172 3.457,0.26172 4.5586,-1.16406 7.1797,-9.33594 10.2343,-8.58594 10.6718,-12.66407"
       style="fill:#f38a7d;fill-opacity:1;fill-rule:nonzero;stroke:none" />
    <path
       id="path108"
       d="m 1884.0078,267.99609 -6.7969,16.97657 -28.5429,-7.92579 -13.0039,23.60157 -22.3243,-2.4375 -1.2421,11.29297 29.8671,3.26562 12.3282,-22.35937 29.6797,8.2539 10.25,-25.55469 -10.2149,-5.11328"
       style="fill:#456eb5;fill-opacity:1;fill-rule:nonzero;stroke:none" />
    <path
       id="path110"
       d="m 1456.8086,1094.6055 132.9102,-41.6992 c 0.4492,-8.1993 0.8828,-15.0782 1.3125,-20.1915 4.4804,-53.73043 -12.9493,-248.58589 -13.8711,-256.14058 -0.9454,-7.54297 -89.4297,-57.25781 -79.9532,-65.57813 9.4727,-8.32031 47.8438,15.90625 51.8203,11.16407 9.1719,-10.9336 -10.4062,-125.67969 -1.1523,-124.10547 17.3438,2.92968 15.2969,72.87109 23.6602,72.78515 8.3632,-0.0937 -4.8672,-73.18359 9.0117,-78.17968 13.8828,-4.99219 5.8359,70.33203 12.0351,73.32421 6.2032,2.98829 17.375,-69.89062 30.3125,-62.46093 7.0196,4.02734 -11.5625,64.57031 -1.9922,64.24218 9.5586,-0.3125 31.2032,-44.49609 38.8321,-39.10546 7.6289,5.39453 -25.8125,42.66406 -26.1367,68.27734 -0.3243,25.60937 -11.7188,36.00781 0.094,76.86719 11.8164,40.84765 76.5859,296.64061 47.5234,330.69141 -23.5976,27.6484 -169.625,102.6094 -181.9726,96.4297 -47.3203,-23.6719 -42.4336,-106.3203 -42.4336,-106.3203"
       style="fill:#f5a38f;fill-opacity:1;fill-rule:nonzero;stroke:none" />
    <path
       id="path112"
       d="m 1571.5195,717.85937 c 0,0 38.9414,5.42969 34.1914,39.32032 0,0 -5.7226,-29.73828 -34.1914,-39.32032"
       style="fill:#f37357;fill-opacity:1;fill-rule:nonzero;stroke:none" />
    <path
       id="path114"
       d="m 1024.0586,801.37109 c -7.7969,-25.07031 -4.3086,-51.85156 -21.1094,-74.33203 -5.93748,-7.94922 -12.09764,-12.19922 -17.60545,-20.85937 -8.87109,-13.94922 -29.43359,-34.89063 -35.82031,-43.58985 -0.88672,-1.21093 -2.00782,-2.58984 -1.6875,-4.17968 0.65625,-3.28125 4.96093,-5.55079 8.57031,-5.55079 3.42187,0 5.84375,1.87891 8.49609,3.78125 9.3711,6.71094 27.07032,22.48047 31.02344,18.33985 4.66402,-4.8711 3.94531,-18.39063 -4.17578,-43.12891 -8.11719,-24.73047 -22.54688,-61.29297 -13.60938,-62.58203 8.9375,-1.28906 33.91018,66.89063 37.78908,66.71094 3.8789,-0.17969 1.8515,-81.71875 10.9101,-85.35938 9.0508,-3.63281 8.2305,76.37891 11.0586,79.91797 2.8204,3.53906 22.6914,-73.55078 30.6407,-71.36719 10.4922,2.88672 -12.1602,69.86719 -8.3672,75.13672 3.7969,5.26953 23.9179,-45.78906 33.3281,-48.76953 9.4219,-2.98047 -1.4805,31.63281 -10.0391,49.8711 -6.4726,13.78125 -6,56.87109 -5.332,66.73046 0.6719,9.84766 -7.6992,28.58985 -5,44.12891 2.7109,15.53906 8.5195,21.24219 8.5195,21.24219 -19.1992,11.27734 -38.3984,22.5664 -57.5898,33.85937"
       style="fill:#f8a391;fill-opacity:1;fill-rule:nonzero;stroke:none" />
    <path
       id="path116"
       d="m 1603.0313,1163.9297 -38.1797,-123.3516 -167.4532,56.0508 c 0,0 -168.039,-9.8594 -188,3.3594 -59.1367,39.1719 -12.4375,285.7734 -7.789,401.5703 -9.9805,28.793 -55.5313,138.3203 -55.5313,138.3203 0,0 81.75,46.7109 205.9727,36.1016 74.1094,-6.3399 128.4609,-23.3594 128.4609,-23.3594 0,0 -40.1406,-65.6992 -46.2617,-114.1016 26.6797,-118.6914 57.8516,-301.1093 57.8516,-301.1093 l 110.9297,-73.4805"
       style="fill:#f37357;fill-opacity:1;fill-rule:nonzero;stroke:none" />
    <path
       id="path118"
       d="m 1321.8984,988.80078 c 0,0 -7.0195,80.91802 -16.039,103.33982 -9.0313,22.4297 -7.668,103.0703 41.1289,117.6289 48.8008,14.5586 47.9219,-88.9414 49.9414,-112.9101 2.0195,-23.9688 4.25,-102.39065 4.25,-102.39065 l -79.2813,-5.66797"
       style="fill:#f5a38f;fill-opacity:1;fill-rule:nonzero;stroke:none" />
    <path
       id="path120"
       d="m 1319.4492,1013.3594 c 4.9922,5.3906 10.8008,10.3125 17.5508,14.6094 23.6406,15.0507 45.3086,14.8398 62.9102,5.832 0.7617,-21.3594 1.2695,-39.33205 1.2695,-39.33205 l -79.2813,-5.66797 c 0,0 -0.8867,10.30078 -2.4492,24.55862"
       style="fill:#f37357;fill-opacity:1;fill-rule:nonzero;stroke:none" />
    <path
       id="path122"
       d="m 1346.8984,820.66016 c 0,0 -30.4765,6.85937 -49.2968,35.58984 -18.8203,28.71875 -32.4922,119.05078 29.4882,158.5195 61.9883,39.4688 110.961,-22.14059 111.7618,-76.59763 0.789,-54.45312 -10.8711,-127.12109 -91.9532,-117.51171"
       style="fill:#f5a38f;fill-opacity:1;fill-rule:nonzero;stroke:none" />
    <path
       id="path124"
       d="m 1455.0117,914.44922 c -1.3008,13.58203 -8.7734,23.97265 -16.6836,23.21094 -7.9062,-0.75 -13.2578,-12.37891 -11.957,-25.94922 1.3008,-13.58203 8.7578,-23.97266 16.668,-23.22266 7.9101,0.76172 13.2695,12.38281 11.9726,25.96094"
       style="fill:#f5a38f;fill-opacity:1;fill-rule:nonzero;stroke:none" />
    <path
       id="path126"
       d="m 1360.6289,817.14062 c 0,0 -37.418,83.9375 -70.3008,91.42969 -32.8672,7.5 -32.3984,49.73828 -32.3984,49.73828 0,0 0.7422,-97.53906 31.5508,-119.91015 30.8086,-22.36719 71.1484,-21.25782 71.1484,-21.25782"
       style="fill:#174554;fill-opacity:1;fill-rule:nonzero;stroke:none" />
    <path
       id="path128"
       d="m 1304.3398,928.37891 c 4.3321,13.63281 0.3711,27.05078 -8.8515,29.98046 -9.207,2.92188 -20.1875,-5.75 -24.5195,-19.39062 -4.3204,-13.62891 -0.3594,-27.04688 8.8515,-29.98047 9.211,-2.91797 20.1914,5.76172 24.5195,19.39063"
       style="fill:#f5a38f;fill-opacity:1;fill-rule:nonzero;stroke:none" />
    <path
       id="path130"
       d="m 923.54687,1093.9297 141.67193,-55.0781 -59.5469,-270.20316 82.6172,-27.53907 c 0,0 98.5195,325.53123 100.0117,346.37893 1.4805,20.8398 -188.58205,168.7109 -188.58205,168.7109 l -76.17188,-162.2695"
       style="fill:#3a8f7a;fill-opacity:1;fill-rule:nonzero;stroke:none" />
    <path
       id="path132"
       d="m 985.28516,1692.1602 c 0,0.059 0.008,0.1406 0.0195,0.2382 l -0.0195,-0.2382"
       style="fill:#f5cc7d;fill-opacity:1;fill-rule:nonzero;stroke:none" />
    <path
       id="path134"
       d="m 1093,1532.5703 c -3.9414,-7.9297 -7.6914,-15.2617 -11.2812,-22.1406 -33.0079,11.4101 -70.3086,24.0586 -108.68364,37.1094 l 12.25,144.6211 c -0.10157,-3.0118 11.69531,43.8515 24.56644,95.75 h 144.3672 C 1140.8711,1697.9805 1119.6211,1586.3984 1093,1532.5703"
       style="fill:#f5cc7d;fill-opacity:1;fill-rule:nonzero;stroke:none" />
    <path
       id="path136"
       d="m 973.03516,1547.5391 c -63.9336,21.7422 -122.625,42.5898 -177.50782,62.5195 11.16016,52.4727 25.72266,119.1914 38.25,177.8516 h 186.31246 c 1.8399,-62.1797 0.5391,-128.461 -5.8281,-183.2891 l -41.22654,-57.082"
       style="fill:#fadeb0;fill-opacity:1;fill-rule:nonzero;stroke:none" />
    <path
       id="path138"
       d="m 948.89062,1094.6094 -45.5664,0.25 c 0,0 -80.67969,4.4297 -95.47656,6.3203 -1.28125,0.1719 -25.70704,288.6406 -27.20704,396.2891 -1.5039,107.6523 15.86719,191.9414 15.86719,191.9414 0,0 103.26172,-2.8789 174.92578,-17.8594 74.51561,-15.582 171.19531,-52.1094 171.19531,-52.1094 0,0 -113.6289,-257.832 -133.9102,-319.9219 -20.28511,-62.0781 -59.82808,-204.9101 -59.82808,-204.9101"
       style="fill:#ffffff;fill-opacity:1;fill-rule:nonzero;stroke:none" />
    <path
       id="path140"
       d="M 808.21484,1101.1602 642.34375,908.85156 c 0,0 -95.28516,-221.08203 -98.16797,-228.22265 -2.83203,-7 -70.28516,18.12109 -87.87891,28.76953 -4.73828,2.87109 79.86329,295.63276 79.86329,295.63276 l 125.05078,141.5704 c 0,0 78.4414,111.6992 80.67968,187.4297 3.71094,125.7695 -24.10546,416.6992 -18.15234,421.4492 35.46094,16.8789 165.10156,27.539 184.45313,-17.1211 67.20312,-155.0899 -99.97657,-637.1992 -99.97657,-637.1992"
       style="fill:#3a8f7a;fill-opacity:1;fill-rule:nonzero;stroke:none" />
    <path
       id="path142"
       d="m 792.78516,1018.0117 15.42968,83.1485 c 0,0 61.36328,101.3281 91.79688,86.3711 25.53515,-12.543 4.3789,-90.3516 4.3789,-90.3516 0,0 -8.03125,-18.0313 -14.61718,-38.5586 -4.60157,-14.3516 -8.5,-29.9102 -8.45313,-41.3906 0.10938,-27.89066 -88.53515,0.7812 -88.53515,0.7812"
       style="fill:#f5a38f;fill-opacity:1;fill-rule:nonzero;stroke:none" />
    <path
       id="path144"
       d="m 881.32031,1017.2305 c 0.10938,-27.89066 -72.48047,1.7187 -72.48047,1.7187 l 0.0391,8.1602 c 3.04296,4.9922 6.45703,9.1211 10.27734,12.1094 19.67187,15.3515 47.69141,22.0195 70.57422,19.2617 -4.58594,-14.3086 -8.45703,-29.8086 -8.41016,-41.25"
       style="fill:#f37357;fill-opacity:1;fill-rule:nonzero;stroke:none" />
    <path
       id="path146"
       d="m 892.1875,842.37891 c 0,0 24.71484,50.08203 22.03125,89.22265 -2.68359,39.13672 -14.30469,64.59766 -14.30469,64.59766 L 816.67578,866.16016 892.1875,842.37891"
       style="fill:#113559;fill-opacity:1;fill-rule:nonzero;stroke:none" />
    <path
       id="path148"
       d="m 782.47266,880.91016 c -2.19141,-0.76172 -16.44141,112.35156 12.92968,143.16014 29.375,30.8008 86.125,40.4414 106.21485,15.7578 22.22265,-27.289 19.9375,-148.68748 -25.57422,-180.23826 -45.51563,-31.53906 -93.57031,21.32032 -93.57031,21.32032"
       style="fill:#f5a38f;fill-opacity:1;fill-rule:nonzero;stroke:none" />
    <path
       id="path150"
       d="m 783.13281,809.73047 c -27.83203,18.73047 -41.99609,33.21094 -63.91797,70.05078 -26.95703,45.29687 7.98828,100.27734 40.09766,124.44925 32.10937,24.1797 31.82812,51.5312 31.82812,51.5312 l 5.00391,-13.7422 c 3.61719,-11.1211 -12.54297,-59.55075 -15.50781,-65.71872 -7.82422,-16.28125 -9.32813,-19.78125 -2.69141,-33.44922 5.10938,-10.52344 3.92188,-35.3125 11.96875,-52.70312 l 47.90625,-4.08985 c 0,0 30.07031,-3.27734 46.97656,-18.38672 48.54688,-43.39062 -28.125,-108.51171 -101.66406,-57.9414"
       style="fill:#113559;fill-opacity:1;fill-rule:nonzero;stroke:none" />
    <path
       id="path152"
       d="m 787.44922,956.64844 c 4.15625,13.14062 1.32812,25.76172 -6.3086,28.17187 -7.64062,2.41797 -17.20312,-6.28125 -21.35546,-19.42187 -4.15625,-13.14844 -1.32813,-25.75782 6.3125,-28.17969 7.63671,-2.41016 17.19921,6.28125 21.35156,19.42969"
       style="fill:#f5a38f;fill-opacity:1;fill-rule:nonzero;stroke:none" />
    <path
       id="path154"
       d="m 1068,1196.4688 -113.61719,-114.5274 -51.43359,12.4883 c 0,0 53.55859,43.0117 82.33594,128.1094 28.77344,85.1093 154.50394,478.8711 154.50394,478.8711 0,0 48.7617,-16.9805 57.0898,-43.6797 C 1205.2109,1631.0391 1068,1196.4688 1068,1196.4688"
       style="fill:#3a8f7a;fill-opacity:1;fill-rule:nonzero;stroke:none" />
    <path
       id="path156"
       d="m 2444.9688,365.39844 c 0,0 -38.3868,-6.375 -74.2071,11.66797 -35.8164,18.04687 -66.1172,55.96484 -66.1172,55.96484 l 49.9493,34.25781 c 0,0 -5.1602,-58.76953 90.375,-101.89062"
       style="fill:#fadeb0;fill-opacity:1;fill-rule:nonzero;stroke:none" />
    <path
       id="path158"
       d="m 2446.3906,395.22656 6.25,-32.42969 -23.1562,-23.52734 c -2.6328,-2.69531 -1.0469,-7.23047 2.6797,-7.69922 l 32.7695,-4.05078 15.2227,-29.29687 c 1.746,-3.34766 6.5625,-3.23829 8.1523,0.17187 l 13.9922,29.90234 32.5664,5.44141 c 3.7109,0.60547 5.0976,5.21875 2.3555,7.78906 l -24.125,22.55078 4.8789,32.64454 c 0.5625,3.72265 -3.3828,6.46484 -6.668,4.64453 l -28.9063,-15.97266 -29.5468,14.75391 c -3.3633,1.66797 -7.1992,-1.23047 -6.4649,-4.92188"
       style="fill:#f5cc7d;fill-opacity:1;fill-rule:nonzero;stroke:none" />
    <path
       id="path160"
       d="m 327.97656,966.60156 c 0,0 38.38281,-6.36328 74.20313,11.67969 35.8164,18.03906 66.1289,55.96875 66.1289,55.96875 l -49.95312,34.2617 c 0,0 5.15234,-58.7812 -90.37891,-101.91014"
       style="fill:#fadeb0;fill-opacity:1;fill-rule:nonzero;stroke:none" />
    <path
       id="path162"
       d="m 326.5625,996.42969 -6.26563,-32.41797 23.15625,-23.54297 c 2.64063,-2.67969 1.0586,-7.21875 -2.67578,-7.6875 l -32.76953,-4.0625 -15.23437,-29.28906 c -1.73438,-3.33985 -6.54297,-3.23828 -8.13282,0.17187 l -13.99218,29.91016 -32.57032,5.42969 c -3.71093,0.61718 -5.09765,5.23046 -2.35156,7.78906 l 24.125,22.55078 -4.89844,32.66016 c -0.55859,3.71879 3.39454,6.45699 6.6836,4.63669 l 28.89844,-15.97654 29.54687,14.75004 c 3.36328,1.6796 7.19531,-1.2227 6.48047,-4.92191"
       style="fill:#f5cc7d;fill-opacity:1;fill-rule:nonzero;stroke:none" />
    <path
       id="path164"
       d="m 2012.3672,263.35156 c 0,8.94141 -7.2383,16.1875 -16.1875,16.1875 -8.9375,0 -16.1836,-7.24609 -16.1836,-16.1875 0,-8.9375 7.2461,-16.18359 16.1836,-16.18359 8.9492,0 16.1875,7.24609 16.1875,16.18359"
       style="fill:#4fbda3;fill-opacity:1;fill-rule:nonzero;stroke:none" />
    <path
       id="path166"
       d="m 2607.2656,276.86719 c 0,7.47265 -6.0625,13.53515 -13.5312,13.53515 -7.4531,0 -13.5156,-6.0625 -13.5156,-13.53515 0,-7.46875 6.0625,-13.51563 13.5156,-13.51563 7.4687,0 13.5312,6.04688 13.5312,13.51563"
       style="fill:#b5573f;fill-opacity:1;fill-rule:nonzero;stroke:none" />
    <path
       id="path168"
       d="m 2133.5547,355.21094 c 0,7.60547 -6.1641,13.76953 -13.7539,13.76953 -7.6055,0 -13.7735,-6.16406 -13.7735,-13.76953 0,-7.60547 6.168,-13.75782 13.7735,-13.75782 7.5898,0 13.7539,6.15235 13.7539,13.75782"
       style="fill:#f59c8c;fill-opacity:1;fill-rule:nonzero;stroke:none" />
    <path
       id="path170"
       d="m 1545.6406,1231.7383 -55.5195,126.6406 c -5.5195,12.582 6.3906,29.9609 26.5898,38.8203 20.1993,8.8594 41.0586,5.8399 46.5704,-6.7383 l 55.5195,-126.6406 -73.1602,-32.082"
       style="fill:#335187;fill-opacity:1;fill-rule:nonzero;stroke:none" />
    <path
       id="path172"
       d="m 1479.5195,1494.5 -10.25,-4.5 49.6914,-113.3398 10.2579,4.5 -49.6993,113.3398"
       style="fill:#335187;fill-opacity:1;fill-rule:nonzero;stroke:none" />
    <path
       id="path174"
       d="m 1513.1406,1515.4219 -85.2422,-37.3711 c 1.8321,-4.1914 6.7227,-6.1016 10.9102,-4.2617 l 70.0703,30.7226 c 4.1914,1.8399 6.0899,6.7188 4.2617,10.9102"
       style="fill:#335187;fill-opacity:1;fill-rule:nonzero;stroke:none" />
    <path
       id="path176"
       d="m 1517.5898,1395.1992 c -18.4101,-8.0703 -29.289,-23.9609 -24.2695,-35.4179 l 54.6485,-124.6407 66.75,29.2696 -54.6407,124.6406 c -5.0273,11.4609 -24.0898,14.2187 -42.4883,6.1484"
       style="fill:#fadeb0;fill-opacity:1;fill-rule:nonzero;stroke:none" />
    <path
       id="path178"
       d="m 1525.9609,1285.3516 66.75,29.2695 22.0079,-50.2109 -66.75,-29.2696 -22.0079,50.211"
       style="fill:#ffffff;fill-opacity:1;fill-rule:nonzero;stroke:none" />
    <path
       id="path180"
       d="m 1204.9609,1103.8008 c 0,0 -38.6015,-0.332 -58.8828,26.418 -30.789,40.6328 -68.3593,385.0898 -53.7968,392.6914 48.8398,25.4882 344.6484,-61.0391 356.3671,-49.3321 11.711,11.7227 43.4532,23.5703 43.4532,23.5703 0,0 59.539,-51.6601 57.6289,-73.9101 -3.1094,-36.2188 -134.4922,-20.957 -134.4922,-20.957 l -237.4492,24.1875 27.1718,-322.668"
       style="fill:#f5a38f;fill-opacity:1;fill-rule:nonzero;stroke:none" />
    <path
       id="path182"
       d="m 1188.9609,1406 32.4375,-309.6602 c 0,0 -55.039,2.6719 -75.3203,29.4102 -20.1289,26.5781 -72.3398,173.8281 -85.8984,276.5313 34.2891,-1.2305 128.75,3.7187 128.7812,3.7187"
       style="fill:#f37357;fill-opacity:1;fill-rule:nonzero;stroke:none" />
    <path
       id="path184"
       d="m 2041.6289,1787.9102 c 48.7617,-27.1602 98.9492,-55.5508 116.8008,-68.9727 38.1836,-28.6992 140.0664,-106.0195 140.0664,-106.0195 l -160.4023,-168.4297 c 0,0 -278.5391,271.6015 -317.6016,343.4219 h 221.1367"
       style="fill:#113559;fill-opacity:1;fill-rule:nonzero;stroke:none" />
    <path
       id="path186"
       d="m 2129.3359,1787.9102 h 212.7344 c 0.4024,-35.168 -0.7187,-70.2579 -4.9726,-96.1485 -17.9336,-108.9219 -70.2305,-185.3594 -76.6094,-247.5195 -0.059,-0.5117 -0.75,-7.1406 -0.074,-7.3399 -0.027,0.01 -166.7891,44.4883 -166.7891,44.4883 0,0 -14.4844,64.3594 -4.5859,94.5196 -0.07,-0.027 16.2265,99.539 40.2968,212"
       style="fill:#456eb5;fill-opacity:1;fill-rule:nonzero;stroke:none" />
    <path
       id="path188"
       d="m 2056.3516,1175.7422 -93.8633,98.6289 -189.3945,9.9219 c 0,0 -51.5899,-29.1719 -63.2696,-29.1719 -11.6797,0 -25.8281,75.668 -8.039,83.6094 17.789,7.9414 275.0234,24.0429 297.4023,17.6914 22.3828,-6.3399 128.1094,-129.0391 128.1094,-129.0391 l -70.9453,-51.6406"
       style="fill:#f38a7d;fill-opacity:1;fill-rule:nonzero;stroke:none" />
    <path
       id="path190"
       d="m 1992.0742,1229.7383 79.7227,85.7187 77.1758,-96.2187 85.414,-169.9922 c 0,0 -34.7344,4.8516 -71.0898,11.3008 -58.711,10.4297 -171.2227,169.1914 -171.2227,169.1914"
       style="fill:#3a8f7a;fill-opacity:1;fill-rule:nonzero;stroke:none" />
    <path
       id="path192"
       d="m 2552.8477,840.34766 c -34.8047,-46.0625 -95.1485,-61.48829 -145.5586,-34.82032 -24.043,-21.2539 -57,-32.23047 -88.4922,-29.19531 -62.1289,5.98828 -128.5781,71.78125 -108.3672,133.15625 -10.543,48.875 -8.7617,92.08982 35.1914,112.78902 4.2539,59.8829 79.1758,110.9297 146.6875,87.3516 35.1406,31.668 89.7187,28.1797 133.0664,8.5586 10.2227,-4.6289 21.4375,-14.1484 24.7344,-14.5898 0.051,-0.01 114.7226,28.7421 151.7969,-78.1407 38.8085,-111.86716 -38.9571,-236.66403 -149.0586,-185.10934"
       style="fill:#b5573f;fill-opacity:1;fill-rule:nonzero;stroke:none" />
    <path
       id="path194"
       d="m 2106.3477,1259.0313 c 2.0664,-34.4415 -2.1836,-107.1407 0.8593,-118.2305 -0.1172,-0.9102 -0.2617,-1.832 -0.4101,-2.7617 l 92.2148,-83.4571 c 0.4336,-0.062 33.1524,-5.4101 37.4297,-4.8515 27.6094,3.6484 117.2734,14.1289 134.4844,22.2578 l 0.2031,135.793 c -8.3945,12.7187 -104.3008,285.6796 -55.3086,364.9296 9.6758,15.6172 -267.164,-5.1093 -274.2773,-35.5781 -3.1016,-13.2031 60.6289,-208.5039 64.8047,-278.1015"
       style="fill:#4fbda3;fill-opacity:1;fill-rule:nonzero;stroke:none" />
    <path
       id="path196"
       d="m 2303.5664,1018.9922 c 0,0 -10.6133,53.7812 -11.5898,75.3594 -0.9766,21.5703 -56.1602,58.6289 -99.336,52.8203 -43.1601,-5.8008 29.7188,-60.1211 36.7032,-80.418 6.9648,-20.3008 20.3046,-84.00781 20.3046,-84.00781 l 53.918,36.24611"
       style="fill:#f5a38f;fill-opacity:1;fill-rule:nonzero;stroke:none" />
    <path
       id="path198"
       d="m 2242.8086,1014.0234 c 10.4453,17.3477 29.1836,28.4375 56.9961,25.0196 2.0781,-11.5703 3.7617,-20.0508 3.7617,-20.0508 l -53.918,-36.24611 c 0,0 -2.9648,14.17188 -6.8398,31.27731"
       style="fill:#f37357;fill-opacity:1;fill-rule:nonzero;stroke:none" />
    <path
       id="path200"
       d="m 2345.5664,852.1875 c 0,0 23.1992,18.17187 28,51.19922 4.8008,33.01953 -17.1445,113.44138 -85.1562,124.08208 -67.9961,10.6367 -87.1954,-58.15239 -66.6797,-106.96489 20.5273,-48.81641 58.7265,-108.92969 123.8359,-68.31641"
       style="fill:#f5a38f;fill-opacity:1;fill-rule:nonzero;stroke:none" />
    <path
       id="path202"
       d="m 2217.0664,905.20703 c -0.5781,12.95313 4.8047,23.66797 12.0313,23.93359 7.2265,0.26563 13.5586,-10.01953 14.1523,-22.97265 0.5898,-12.94922 -4.8047,-23.66797 -12.0312,-23.92969 -7.2149,-0.26562 -13.5586,10.01563 -14.1524,22.96875"
       style="fill:#f5a38f;fill-opacity:1;fill-rule:nonzero;stroke:none" />
    <path
       id="path204"
       d="m 2333.8086,832.46484 c 0,0 -1.0078,101.38282 27.2773,123.65625 28.3008,22.27344 9.2227,64.64451 9.2227,64.64451 0,0 42.2852,-98.66404 22.5273,-135.0156 -19.7461,-36.34766 -59.0273,-53.28516 -59.0273,-53.28516"
       style="fill:#b5573f;fill-opacity:1;fill-rule:nonzero;stroke:none" />
    <path
       id="path206"
       d="m 2341.5938,974.73437 c -8.7422,10.16797 -10.5665,23.35157 -4.0508,29.44533 6.5156,6.0898 18.9023,2.789 27.664,-7.37892 8.7578,-10.17187 10.5664,-23.35547 4.0508,-29.44922 -6.5156,-6.08984 -18.9023,-2.78515 -27.664,7.38281"
       style="fill:#f5a38f;fill-opacity:1;fill-rule:nonzero;stroke:none" />
    <path
       id="path208"
       d="m 2353.3906,1066.9922 c 0,0 117.8828,-176.18361 143.711,-216.89454 25.8242,-40.70704 92.8281,-202.30469 95.2148,-208.67579 2.3906,-6.36328 -47.0898,-82.4414 -36.1328,-85.10937 10.9414,-2.66406 23.2695,40.125 34.9492,34.94531 11.6758,-5.17187 45.336,-108.49609 52.0156,-103.41015 12.5313,9.51562 -18.0898,64.07812 -11.4257,67.47265 6.6679,3.39844 26.4961,-59.99609 39.5429,-58.19531 13.0782,1.79687 -24.539,58.13672 -20.8672,63.07812 3.6758,4.94141 42.75,-48.16015 49.9336,-36.91406 3.875,6.10547 -35.9492,46.35938 -28.2304,50.07422 7.6992,3.71094 43.164,-22.31641 46.9882,-14.87891 3.793,7.4375 -32.8398,17.82813 -43.7343,37.98438 -10.8555,20.15625 -29.5157,28.9375 -37.0977,66.19922 -7.5703,37.26562 -18.5117,172.03515 -57.9492,239.4375 -39.4102,67.40625 -145.5664,221.16793 -145.5664,221.16793 l -81.3516,-56.2812"
       style="fill:#f38a7d;fill-opacity:1;fill-rule:nonzero;stroke:none" />
    <path
       id="path210"
       d="m 2329.9922,1069.7813 c 30.6641,-37.4688 108.7383,-138.50396 108.7383,-138.50396 0,0 79.6367,53.89453 88.2422,82.26566 0,0 -162.9336,207.7773 -170.9024,219.6289 0,0 -36.4492,-150.7188 -26.0781,-163.3906"
       style="fill:#4fbda3;fill-opacity:1;fill-rule:nonzero;stroke:none" />
    <path
       id="path212"
       d="m 1740.4648,1344.543 c 0,-46.8399 -12.8437,-78.8516 -12.8437,-78.8516 l -9.2695,-7.3476 15.3007,85.4882 c 2.1875,0.2383 4.4649,0.4805 6.8125,0.7188 v -0.01"
       style="fill:#b5573f;fill-opacity:1;fill-rule:nonzero;stroke:none" />
    <path
       id="path214"
       d="m 1652.8242,1119.0117 25.1211,124.2383 c 2.5078,12.3398 20.586,19.1016 40.4102,15.0898 19.8242,-4.0078 33.8633,-17.2578 31.3672,-29.5976 l -25.1094,-124.2422 -71.7891,14.5117"
       style="fill:#99bff8;fill-opacity:1;fill-rule:nonzero;stroke:none" />
    <path
       id="path216"
       d="m 1741.7539,1350.9141 -10.0547,2.039 -22.4844,-111.1992 10.0547,-2.0312 22.4844,111.1914"
       style="fill:#99bff8;fill-opacity:1;fill-rule:nonzero;stroke:none" />
    <path
       id="path218"
       d="m 1778.0039,1348.8789 -83.6211,16.9102 c -0.8398,-4.1094 1.8203,-8.1094 5.9336,-8.9414 l 68.7422,-13.8985 c 4.1133,-0.832 8.1172,1.8281 8.9453,5.9297"
       style="fill:#99bff8;fill-opacity:1;fill-rule:nonzero;stroke:none" />
    <path
       id="path220"
       d="m 1717.9609,1256.3789 c -18.0468,3.6524 -34.5937,-2.5195 -36.8671,-13.7695 l -24.7188,-122.2813 65.4883,-13.2383 24.7226,122.2813 c 2.2735,11.25 -10.5703,23.3594 -28.625,27.0078"
       style="fill:#fadeb0;fill-opacity:1;fill-rule:nonzero;stroke:none" />
    <path
       id="path222"
       d="m 1666.3359,1169.5859 65.4883,-13.2382 -9.9531,-49.2618 -65.4922,13.2422 9.957,49.2578"
       style="fill:#ffffff;fill-opacity:1;fill-rule:nonzero;stroke:none" />
    <path
       id="path224"
       d="m 1350.3789,601.66016 -11.9101,-0.33985 3.9023,-129.92969 11.918,0.34766 -3.9102,129.92188"
       style="fill:#99bff8;fill-opacity:1;fill-rule:nonzero;stroke:none" />
    <path
       id="path226"
       d="m 1349.0391,479.71875 105.1797,-76.04688 h -210.3477 z m 0,0"
       style="fill:#99bff8;fill-opacity:1;fill-rule:nonzero;stroke:none" />
    <path
       id="path228"
       d="m 1396.1484,441.46875 c -11.7773,0.62109 -23.6875,-0.59766 -35.4765,-3.6875 -24.3125,-6.69141 -48.6133,-11.19141 -72.4414,-6.22266 l 47.4883,34.33985 c 7.9531,5.75 18.7031,5.75 26.6523,0 l 33.7773,-24.42969"
       style="fill:#94d9c7;fill-opacity:1;fill-rule:nonzero;stroke:none" />
    <path
       id="path230"
       d="m 527.85547,417.21875 c 0,8.42969 -6.83594,15.26172 -15.26563,15.26172 -8.43359,0 -15.26953,-6.83203 -15.26953,-15.26172 0,-8.42969 6.83594,-15.26953 15.26953,-15.26953 8.42969,0 15.26563,6.83984 15.26563,15.26953"
       style="fill:#456eb5;fill-opacity:1;fill-rule:nonzero;stroke:none" />
    <path
       id="path232"
       d="m 398.14453,1122.25 c 0,3.8203 -3.09766,6.9102 -6.91406,6.9102 -3.82031,0 -6.91797,-3.0899 -6.91797,-6.9102 0,-3.8203 3.09766,-6.9219 6.91797,-6.9219 3.8164,0 6.91406,3.1016 6.91406,6.9219"
       style="fill:#99bff8;fill-opacity:1;fill-rule:nonzero;stroke:none" />
    <path
       id="path234"
       d="m 2798.8242,1012.1016 c 0,5.7109 -4.6367,10.3398 -10.3359,10.3398 -5.7188,0 -10.3555,-4.6289 -10.3555,-10.3398 0,-5.7188 4.6367,-10.3477 10.3555,-10.3477 5.6992,0 10.3359,4.6289 10.3359,10.3477"
       style="fill:#fadeb0;fill-opacity:1;fill-rule:nonzero;stroke:none" />
    <path
       id="path236"
       d="m 1773.0977,1284.2891 c 0,0 -2.4024,-14.1563 -15.9571,-24.7891 -12.3047,-9.6484 -50.7461,-25.3906 -55.5312,-20.5977 -12.9688,12.9688 11.7578,16.7188 22.789,26.1602 8.9063,7.6094 9.9727,12.168 9.9727,12.168 l 38.7266,7.0586"
       style="fill:#f38a7d;fill-opacity:1;fill-rule:nonzero;stroke:none" />
    <path
       id="path238"
       d="m 1701.25,1266.8125 c 0,0 30.3555,44.4375 35.3672,58.6875 5.0234,14.2617 -16.9375,-3.6094 -16.9375,-3.6094 0,0 18.4883,11.7305 15.7617,17.6797 -2.7461,5.9492 -24.3203,-6.6992 -24.3203,-6.6992 l 18.6484,10.5273 c 0,0 1.0235,11.6211 -27.9843,-4.6679 -29.0118,-16.2813 -0.5352,-71.918 -0.5352,-71.918"
       style="fill:#f38a7d;fill-opacity:1;fill-rule:nonzero;stroke:none" />
    <path
       id="path240"
       d="m 1336.0391,492.39844 c 2.0117,-2.9375 13.7304,-12.47657 13.7304,3.72265 0,16.1875 -10.2382,69.95703 -10.2382,69.95703 l -20.6915,-28.63671 c 0,0 10.4102,-35.08985 17.1993,-45.04297"
       style="fill:#f5a38f;fill-opacity:1;fill-rule:nonzero;stroke:none" />
    <path
       id="path242"
       d="m 1366.0703,537.03125 c -6.2305,-7.94141 -31.8515,20.91797 -28.6797,24.08984 3.1602,3.16797 28.1289,0 28.1289,0 l 23.0899,42.60938 c 0,0 -10.6875,-51.58203 -22.5391,-66.69922"
       style="fill:#f5a38f;fill-opacity:1;fill-rule:nonzero;stroke:none" />
    <path
       id="path244"
       d="m 1395.5898,609.96875 -108.5781,-3.16797 0.059,-1.94922 c 0.1289,-4.1914 3.6211,-7.48047 7.8086,-7.36328 l 93.4102,2.73047 c 4.1914,0.12109 7.4922,3.62109 7.3593,7.82031 l -0.059,1.92969"
       style="fill:#99bff8;fill-opacity:1;fill-rule:nonzero;stroke:none" />
  </g>
</svg>
